<svg xmlns="http://www.w3.org/2000/svg">
  <symbol id="calendar" viewBox="0 0 16 16">
    <path
      d="M14.857,16H1.143C0.512,16,0,15.487,0,14.857v-12c0-0.631,0.512-1.143,1.143-1.143h1.143v0.571C2.286,3.233,3.053,4,4,4 s1.714-0.767,1.714-1.714V1.714h4.572v0.571C10.286,3.233,11.054,4,12,4s1.714-0.767,1.714-1.714V1.714h1.144 c0.63,0,1.143,0.512,1.143,1.143v12C16,15.487,15.487,16,14.857,16z M14.857,5.714H1.143v9.143h13.714V5.714z M11.982,3.429 c-0.622,0-1.125-0.503-1.125-1.125V1.125C10.857,0.503,11.36,0,11.982,0c0.621,0,1.125,0.503,1.125,1.125v1.179 C13.107,2.925,12.604,3.429,11.982,3.429z M3.982,3.429c-0.622,0-1.125-0.503-1.125-1.125V1.125C2.857,0.503,3.36,0,3.982,0 c0.622,0,1.125,0.503,1.125,1.125v1.179C5.107,2.925,4.604,3.429,3.982,3.429z"
      fill="currentColor"/>
  </symbol>
  <symbol id="text" viewBox="0 0 16 16">
    <rect y="3.691" width="8.615" height="1.231" fill="currentColor"/>
    <rect width="8.615" height="1.23" fill="currentColor"/>
    <rect y="7.384" width="16" height="1.231" fill="currentColor"/>
    <rect y="11.075" width="16" height="1.233" fill="currentColor"/>
    <rect y="14.769" width="16" height="1.231" fill="currentColor"/>
  </symbol>
  <symbol id="video" viewBox="0 0 16 16">
    <path
      d="M15.838,4.799L15.836,4.8c0,0-0.154-1.103-0.637-1.587c-0.607-0.637-1.291-0.641-1.602-0.678C11.359,2.372,8,2.372,8,2.372 H7.994c0,0-3.359,0-5.597,0.163C2.083,2.573,1.403,2.576,0.793,3.213C0.312,3.697,0.16,4.8,0.16,4.8S0,6.094,0,7.391v1.212 c0,1.295,0.159,2.592,0.159,2.592s0.156,1.103,0.634,1.588c0.609,0.637,1.409,0.615,1.766,0.684C3.841,13.589,8,13.626,8,13.626 s3.363-0.006,5.601-0.166c0.312-0.037,0.994-0.041,1.602-0.678c0.482-0.484,0.639-1.589,0.639-1.589S16,9.9,16,8.604V7.39 C15.996,6.096,15.838,4.799,15.838,4.799z M15,8.532c0,1.134-0.137,2.265-0.137,2.265s-0.137,0.965-0.561,1.389 c-0.529,0.557-1.128,0.561-1.401,0.594C10.943,12.92,8,12.924,8,12.924s-3.64-0.031-4.761-0.137 c-0.311-0.062-1.012-0.041-1.545-0.598c-0.418-0.428-0.555-1.393-0.555-1.393S1,9.664,1,8.532V7.468 c0-1.135,0.139-2.266,0.139-2.266s0.135-0.966,0.555-1.39C2.227,3.256,2.822,3.252,3.097,3.22c1.959-0.144,4.898-0.144,4.898-0.144 H8c0,0,2.939,0,4.898,0.144c0.273,0.032,0.871,0.036,1.4,0.593c0.421,0.424,0.558,1.39,0.558,1.39V5.201c0,0,0.14,1.135,0.144,2.268 V8.532z"
      fill="currentColor"/>
    <path
      d="M6.343 5.578v4.497l4.32-2.24"
      fill="currentColor"/>
  </symbol>
  <symbol id="twitter" viewBox="0 0 16 16">
    <path
      d="M16 3.54c-.588.262-1.223.437-1.884.515.678-.406 1.196-1.05 1.444-1.816-.635.374-1.338.65-2.083.796-.6-.638-1.453-1.034-2.397-1.034-1.812 0-3.28 1.47-3.28 3.28 0 .256.028.506.084.747C5.156 5.89 2.738 4.585 1.12 2.6.84 3.083.676 3.65.676 4.25c0 1.137.578 2.143 1.458 2.73-.538-.017-1.044-.167-1.487-.41v.04c0 1.592 1.13 2.92 2.633 3.22-.275.074-.566.115-.865.115-.212 0-.416-.02-.62-.06.42 1.303 1.63 2.254 3.066 2.28-1.124.882-2.537 1.407-4.076 1.407-.266 0-.525-.016-.784-.047C1.456 14.46 3.18 15 5.032 15c6.035 0 9.34-5 9.34-9.338 0-.144-.004-.284-.01-.425C15 4.777 15.558 4.2 16 3.54z"
      fill="currentColor"/>
  </symbol>
  <symbol id="new" viewBox="0 0 16 16" fill-rule="evenodd">
    <path
      d="M4.908 14.367c-.252.068-.504.137-.756.215-.71.22-1.24-.266-1.24-.887 0-.62-.045-1.196-.09-1.773 0-.133-.044-.177-.177-.22l-1.728-.666c-.576-.222-.754-.842-.443-1.33.354-.53.664-1.02 1.02-1.55.088-.134.088-.178 0-.31-.356-.49-.71-.976-1.02-1.508C.12 5.762.34 5.186.917 4.964L2.645 4.3c.133-.045.178-.09.178-.222 0-.62.044-1.24.088-1.862.046-.665.533-.975 1.33-.798.4.133.976.266 1.552.443.177.046.266.046.355-.087C6.5 1.33 6.9.843 7.255.4c.22-.267.487-.4.748-.4h.012c.256.004.506.137.702.4.4.486.798.93 1.153 1.417.044.09.133.133.266.09.252-.08.512-.148.774-.216l.224-.057c.262-.068.522-.137.774-.215.62-.177 1.11.222 1.153.842.045.62.045 1.197.09 1.818 0 .133.044.177.177.22.576.178 1.108.4 1.684.622.666.266.887.842.49 1.418-.312.532-.666 1.02-.977 1.507-.088.133-.088.177 0 .31.355.532.665 1.02.976 1.463.353.532.176 1.152-.445 1.374-.216.083-.426.166-.634.25l-.415.165c-.208.083-.418.166-.634.25-.132.044-.176.088-.176.22 0 .622-.045 1.242-.09 1.863-.043.62-.53 1.02-1.15.842-.577-.178-1.198-.31-1.774-.488-.133-.044-.177 0-.266.09-.4.486-.753.93-1.152 1.417-.444.533-1.02.533-1.463 0l-.436-.533-.283-.35c-.14-.175-.284-.35-.433-.534-.09-.09-.133-.133-.266-.09-.25.08-.503.148-.755.216l-.217.057zM8 4c2.208 0 4 1.792 4 4s-1.792 4-4 4-4-1.792-4-4 1.792-4 4-4zm0 1.75c1.242 0 2.25 1.008 2.25 2.25S9.242 10.25 8 10.25 5.75 9.242 5.75 8 6.758 5.75 8 5.75z"
      fill="currentColor"/>
  </symbol>
  <symbol id="people" viewBox="0 0 16 16">
    <path
      d="M10.706,11.939c-0.229-0.051-0.428-0.093-0.523-0.135c-0.729-0.316-1.177-0.799-1.336-1.435 c0.676-0.581,1.243-1.479,1.566-2.482c0.345-0.447,0.532-0.907,0.532-1.301c0-0.262-0.084-0.48-0.252-0.651 c-0.094-2.194-1.659-3.923-3.604-3.951L7.031,1.983c-1.909,0.011-3.482,1.693-3.62,3.851c-0.245,0.181-0.37,0.433-0.37,0.754 c0,0.463,0.262,1.018,0.72,1.526c0.317,0.87,0.809,1.635,1.394,2.17c-0.158,0.641-0.607,1.123-1.337,1.44 c-0.094,0.041-0.283,0.086-0.5,0.139C2.322,12.1,0.471,12.54,0.006,14.271c-0.028,0.104,0.035,0.211,0.139,0.239l13.657,0.007 c0.018,0,0.034-0.002,0.052-0.007c0.105-0.028,0.167-0.135,0.138-0.24C13.533,12.552,11.693,12.152,10.706,11.939z M0.458,14.145 c0.5-1.318,2.021-1.681,2.95-1.902c0.246-0.058,0.44-0.104,0.565-0.158c1.117-0.484,1.48-1.265,1.589-1.833 c0.013-0.068-0.012-0.139-0.064-0.186c-0.582-0.502-1.072-1.255-1.381-2.12C4.109,7.919,4.095,7.896,4.077,7.877 c-0.409-0.444-0.644-0.915-0.644-1.29c0-0.219,0.083-0.366,0.269-0.477c0.057-0.034,0.093-0.095,0.095-0.16 c0.087-1.995,1.508-3.565,3.251-3.576c0.001,0,0.04,0.003,0.042,0.003c1.752,0.024,3.164,1.629,3.214,3.652 c0.002,0.057,0.027,0.108,0.069,0.145c0.124,0.104,0.181,0.235,0.181,0.414c0,0.313-0.167,0.699-0.471,1.085 c-0.015,0.02-0.024,0.04-0.032,0.062c-0.313,0.994-0.876,1.871-1.542,2.408c-0.057,0.045-0.083,0.117-0.07,0.188 c0.109,0.567,0.473,1.348,1.589,1.832c0.132,0.058,0.337,0.103,0.596,0.158c0.919,0.198,2.42,0.524,2.918,1.817 C13.547,14.16,0.451,14.164,0.458,14.145z"
      fill="currentColor"/>
    <path
      d="M12.707,11.439c-0.229-0.051-0.428-0.093-0.523-0.135c-0.729-0.316-1.177-0.799-1.337-1.435 c0.677-0.581,1.243-1.479,1.566-2.482c0.345-0.447,0.532-0.907,0.532-1.301c0-0.262-0.084-0.48-0.252-0.651 C12.6,3.241,11.034,1.513,9.09,1.484L9.032,1.483C8.649,1.485,8.285,1.567,7.94,1.699c0.218,0.055,0.43,0.129,0.631,0.227 c0.155-0.031,0.313-0.051,0.477-0.052c0.002,0,0.04,0.003,0.042,0.003c1.752,0.024,3.164,1.629,3.214,3.652 c0.002,0.057,0.027,0.108,0.069,0.145c0.124,0.104,0.181,0.235,0.181,0.414c0,0.313-0.167,0.699-0.471,1.085 c-0.015,0.02-0.024,0.04-0.032,0.062c-0.313,0.994-0.876,1.871-1.542,2.408c-0.058,0.045-0.084,0.117-0.07,0.188 c0.108,0.567,0.473,1.348,1.589,1.832c0.132,0.058,0.337,0.103,0.596,0.158c0.919,0.198,2.42,0.524,2.918,1.817 c0.001,0.004-0.528,0.008-1.368,0.01c0.062,0.111,0.107,0.24,0.156,0.366l1.475,0.001c0.018,0,0.034-0.002,0.052-0.007 c0.105-0.028,0.167-0.135,0.138-0.24C15.534,12.052,13.694,11.652,12.707,11.439z"
      fill="currentColor"/>
  </symbol>
  <symbol id="globe" viewBox="0 0 16 16">
    <path
      d="M15.997 8c0-4.34-3.478-7.882-7.79-7.992-.005 0-.01-.005-.01-.005v.005C8.134.008 8.07 0 8.002 0c-4.412 0-8 3.588-8 8 0 4.232 3.31 7.7 7.473 7.974.005.004.013.004.018.007l.003-.006c.17.006.34.026.51.026.17 0 .336-.02.508-.026v.004s.005 0 .005-.004c4.163-.267 7.477-3.742 7.477-7.975zM12.7 7.88c-.018-1.21-.232-2.367-.598-3.413.587-.35 1.128-.78 1.613-1.277 1.07 1.272 1.724 2.91 1.756 4.694H12.7V7.88zm-.52 0H8.26V5.594c1.185-.04 2.346-.348 3.39-.88.324.973.52 2.045.533 3.164zM8.26 5.077V.598c1.387.614 2.522 1.934 3.203 3.63-.98.516-2.075.81-3.202.85zm-.522 0c-1.127-.04-2.22-.334-3.203-.85C5.22 2.535 6.348 1.215 7.736.6V5.08zm0 .52v2.286H3.812c.018-1.12.21-2.192.538-3.16 1.047.528 2.2.832 3.386.874zm-4.44 2.28H.523c.03-1.783.683-3.416 1.755-4.693.486.5 1.028.928 1.613 1.282-.366 1.05-.58 2.203-.598 3.412zM3.3 8.4c.034 1.113.227 2.183.554 3.155-.57.345-1.1.77-1.575 1.258C1.26 11.608.626 10.073.535 8.4H3.3zm.516 0h3.92v2.003c-1.204.038-2.37.35-3.424.898-.29-.897-.46-1.876-.496-2.9zm3.92 2.524v4.545c-.042 0-.084-.004-.127-.01-1.368-.66-2.46-1.98-3.12-3.67.997-.524 2.106-.827 3.246-.866zm.522 0c1.048.045 2.173.38 3.216.935-.662 1.65-1.747 2.954-3.1 3.6-.04 0-.078.007-.122.007v-4.542h.006zm0-.526V8.4h3.922c-.036 1.045-.215 2.05-.52 2.96-1.01-.53-2.17-.914-3.402-.962zM12.695 8.4h2.757c-.088 1.674-.724 3.208-1.74 4.416-.442-.414-.983-.83-1.597-1.195.346-.995.548-2.085.58-3.22zm.675-5.594c-.434.453-.93.84-1.45 1.166-.582-1.4-1.453-2.562-2.516-3.318 1.535.294 2.91 1.063 3.966 2.152zM6.61.653C5.54 1.41 4.665 2.57 4.084 3.973c-.53-.327-1.016-.72-1.456-1.172C3.68 1.718 5.06.95 6.61.654zM2.63 13.198c.426-.443.9-.822 1.413-1.142.538 1.34 1.34 2.467 2.336 3.24-1.457-.322-2.752-1.07-3.75-2.098zm6.983 2.105c.98-.763 1.776-1.867 2.313-3.184.512.31.997.674 1.43 1.084-1 1.03-2.293 1.773-3.743 2.1z"
      fill="currentColor"/>
  </symbol>
  <symbol id="code" viewBox="0 0 16 16">
    <path
      d="M5 11.838l-.437.438c-.058.058-.125.087-.2.087s-.144-.03-.202-.087L.088 8.2C.03 8.144 0 8.076 0 8c0-.076.03-.143.087-.2L4.16 3.723c.06-.058.127-.087.203-.087s.143.03.2.087L5 4.162c.06.058.088.125.088.2s-.03.143-.088.2L1.564 8 5 11.437c.058.058.087.125.087.2 0 .076-.028.143-.087.2zm5.168-9.33l-3.262 11.29c-.023.074-.068.13-.135.17-.066.038-.134.045-.204.02l-.542-.147c-.076-.023-.133-.068-.17-.135-.038-.066-.045-.14-.022-.214l3.26-11.288c.024-.076.07-.132.136-.17.067-.038.135-.046.206-.022l.542.15c.075.022.132.067.17.135.04.066.045.137.022.213zM15.912 8.2l-4.074 4.076c-.058.058-.125.087-.2.087-.076 0-.143-.03-.2-.087L11 11.838c-.06-.058-.088-.125-.088-.2 0-.076.03-.144.088-.2L14.436 8 11 4.563c-.06-.058-.088-.125-.088-.2s.03-.143.088-.2l.437-.44c.06-.057.125-.086.2-.086.076 0 .144.03.2.087L15.913 7.8c.06.057.088.124.088.2 0 .075-.03.143-.088.2z"
      fill="currentColor"/>
  </symbol>
  <symbol id="document" viewBox="0 0 16 16">
    <path
      d="M9.777 0h.297l3.555 4.148V14.82c0 .647-.53 1.18-1.185 1.18h-8.89c-.657 0-1.185-.532-1.185-1.19V1.19C2.37.533 2.902 0 3.558 0h6.22zM9.48.593H3.553c-.326 0-.59.27-.59.59v13.634c0 .326.27.59.592.59h8.888c.328 0 .594-.264.594-.59V4.74h-2.37c-.655 0-1.187-.526-1.187-1.19V.594zm.594.296v2.66c0 .33.268.598.59.598h2.195L10.073.888zM4.148 4.147v.593h4.148V4.15H4.148zm0-1.777v.593h4.148V2.37H4.148zm0 3.556v.593h7.704v-.594H4.148zm0 1.778v.593h7.704v-.593H4.148zm0 1.777v.594h7.704V9.48H4.148zm0 1.78v.592h7.704v-.593H4.148zm0 1.777v.593h7.704v-.593H4.148z"
      fill="currentColor"/>
  </symbol>
  <symbol id="presentation" viewBox="0 0 16 16">
    <path
      d="M16,1.067H8.266V0.267C8.266,0.119,8.147,0,8,0C7.852,0,7.733,0.119,7.733,0.267v0.801H0v11.2 h7.355l-3.278,3.276c-0.104,0.104-0.104,0.273,0,0.378C4.13,15.974,4.198,16,4.266,16c0.068,0,0.137-0.026,0.188-0.078 l3.278-3.278v2.556c0,0.146,0.119,0.267,0.267,0.267c0.147,0,0.266-0.12,0.266-0.267v-2.556l3.279,3.278 C11.596,15.974,11.664,16,11.732,16s0.137-0.026,0.188-0.078c0.104-0.104,0.104-0.273,0-0.378l-3.276-3.276H16V1.067L16,1.067z M0.533,1.6h14.933v10.133H0.533V1.6z"
      fill="currentColor"/>
    <circle cx="2.5" cy="10" r="1" fill="currentColor"/>
    <circle cx="10" cy="7.724" r="1" fill="currentColor"/>
    <circle cx="6" cy="6" r="1" fill="currentColor"/>
    <circle cx="13.5" cy="4" r="1" fill="currentColor"/>
    <polygon points="2.782,10.247 2.218,9.753 5.901,5.543 9.907,7.357 13.224,3.747 13.776,4.253 10.093,8.265 6.099,6.457" fill="currentColor"/>
  </symbol>
  <symbol id="github" viewBox="0 0 16 16">
    <path
      d="M8 .198c-4.418 0-8 3.582-8 8 0 3.534 2.292 6.532 5.47 7.59.4.075.548-.173.548-.384 0-.19-.008-.82-.01-1.49-2.227.484-2.696-.943-2.696-.943-.364-.925-.888-1.17-.888-1.17-.725-.497.055-.485.055-.485.802.056 1.225.824 1.225.824.714 1.22 1.872.867 2.328.663.072-.517.28-.87.508-1.07-1.776-.2-3.644-.888-3.644-3.954 0-.874.313-1.588.824-2.148-.082-.202-.357-1.015.077-2.116 0 0 .672-.216 2.2.82.64-.177 1.323-.267 2.003-.27.68.003 1.365.093 2.004.27 1.527-1.036 2.197-.82 2.197-.82.437 1.102.164 1.916.08 2.116.514.56.823 1.274.823 2.147 0 3.072-1.872 3.748-3.652 3.947.288.248.543.734.543 1.48 0 1.07-.01 1.93-.01 2.195 0 .213.146.462.552.384C13.71 14.726 16 11.73 16 8.196c0-4.418-3.58-8-8-8v.002z"
      fill="currentColor"/>
  </symbol>
  <symbol id="link" viewBox="0 0 16 16">
    <path
      d="M11.636 0c.572 0 1.124.11 1.656.325.53.216 1.008.534 1.43.954.42.42.738.895.954 1.428s.322 1.084.322 1.656c0 .568-.107 1.12-.325 1.656-.218.536-.535 1.012-.952 1.43l-2.18 2.18c-.043.042-.105.1-.19.176-.404.36-.857.633-1.357.82-.5.188-1.012.28-1.538.28-.663 0-1.29-.14-1.88-.424-.444-.208-.846-.492-1.205-.852s-.644-.76-.852-1.205C5.802 8.14 6.145 8 6.546 8c.14 0 .282.02.426.06.247.4.568.72.966.967.466.284.972.427 1.518.427.378 0 .745-.072 1.102-.216.356-.145.674-.356.955-.637l2.182-2.18c.28-.28.492-.6.637-.956.144-.356.216-.724.216-1.103 0-.377-.072-.745-.216-1.1-.145-.357-.356-.676-.637-.956s-.6-.492-.955-.636-.724-.216-1.103-.216-.746.072-1.102.216c-.356.144-.675.356-.955.636l-1.53 1.53c-.485-.132-.987-.198-1.505-.198-.083 0-.2.004-.352.012.076-.083.134-.146.176-.188l2.18-2.182C8.97.862 9.445.545 9.98.326 10.517.108 11.068 0 11.636 0zm-5.09 5.09c.662 0 1.29.143 1.88.427.443.21.845.493 1.205.853.36.36.645.76.854 1.204-.285.284-.628.426-1.03.426-.14 0-.282-.02-.426-.062-.246-.398-.568-.72-.966-.967-.465-.282-.97-.424-1.516-.424-.378 0-.746.072-1.103.215-.356.145-.674.357-.955.637L2.308 9.58c-.28.28-.493.6-.638.954-.144.355-.216.724-.216 1.102 0 .38.072.747.216 1.104.145.355.356.675.637.954.28.28.6.492.955.637.357.145.724.217 1.103.217s.746-.072 1.103-.216c.356-.144.675-.355.955-.636l1.528-1.528c.485.133.987.198 1.506.198.083 0 .2-.003.352-.012-.075.084-.133.146-.175.188L7.45 14.722c-.42.42-.896.738-1.43.955-.532.216-1.083.323-1.655.323-.568 0-1.12-.108-1.655-.327-.536-.218-1.012-.534-1.43-.95-.42-.422-.737-.898-.954-1.43s-.324-1.085-.324-1.657c0-.57.108-1.122.324-1.654s.534-1.01.955-1.43L3.463 6.37c.042-.042.104-.1.188-.176.404-.36.857-.633 1.357-.82.5-.188 1.013-.282 1.54-.283z"
      fill="currentColor"/>
  </symbol>
  <symbol id="harvard-hms" viewBox="0 0 40 48" fill-rule="evenodd" clip-rule="evenodd" stroke-linejoin="round" stroke-miterlimit="1.414">
    <path
      d="M21.163 18.246c.125-.152.21-.352.21-.548-.026-.15-.238-.2-.336-.127-.126.134-.22.36-.17.59.054.124.172.165.296.086zM18.638 21.446c.657-.277.66-1.034 1.094-1.515l.042-.42c-.052-.08-.153-.152-.252-.127-.203.33-.532.65-.63 1.052-.23.256-.31-.32-.59-.168-.1.275-.027.65 0 .926.02.175.158.278.336.253zM19.69 17.614c.18-.026.297-.16.253-.336-.206-.225-.44-.48-.717-.632-.064-.037-.137-.09-.21-.085-.073.008-.157.065-.21.128-.047.224-.19.5.04.674.225.23.542.278.844.252z"
      fill-rule="nonzero"
      fill="currentColor" />
    <path
      d="M31.39 19.806c.114.035.22.07.315.07.084 0 .18-.023.253-.195.08-.362-.128-.63-.348-.91-.08-.1-.16-.203-.227-.312l-.02-.03.014-.032c.293-.755.076-1.627-.54-2.172-.166-.097-.436-.222-.728-.222-.078 0-.152.01-.224.026-.107.153-.03.27.11.455.093.124.19.254.2.412.1 1.157-.852 1.634-1.693 2.054-.26.13-.505.25-.718.39-3.473 1.743-3.954 3.385-4.012 4.47.024 1.187.506 2.3 1.396 3.218.103.176.212.34.318.5.41.617.836 1.258.605 2.073-.193.453-.72.505-1.102.505-1.486-.103-2.332-1.67-2.95-2.818l-.096-.177c-.043-.1-.086-.19-.13-.282-.17-.36-.342-.73-.385-1.166l-.004-.035.025-.023c.1-.09.23-.06.316-.01.123.113.186.26.248.4.106.24.178.387.373.387h.034c.314-.47.1-1.028-.092-1.52l-.033-.087c-.12-.204-.306-.37-.505-.547-.225-.2-.458-.41-.586-.692l-.006-.024c-.018-.246.175-.298.316-.336.145-.04.23-.067.243-.187-.187-.607-.238-1.288-.15-1.97.055-.16.173-.232.28-.298.135-.085.22-.145.223-.29-.182-.662-.173-1.33-.15-1.96.026-.143.075-.276.123-.405.1-.276.197-.537.076-.797-.248-.087-.268-.296-.285-.466-.018-.18-.035-.286-.184-.336-.62-.003-1.133-.24-1.626-.47-.198-.092-.405-.187-.616-.266-.05-.012-.105-.02-.163-.02-.17 0-.327.064-.48.127-.088.037-.18.074-.274.1-.105.02-.21.038-.314.055-.372.06-.725.117-.967.378-.175.21-.17.44-.163.733l.003.18-.003.022c-.042.13-.122.158-.182.158-.073 0-.143-.04-.206-.074l-.074-.04-.017-.005c-.374-.214-.532-.612-.414-1.04.037-.146-.02-.294-.155-.406-.223-.15-.537-.202-.764-.116-.258.092-.37.355-.48.607-.026.064-.053.127-.082.187-.023.24.034.52.143.697.27.28.603.466.958.663.27.15.548.305.797.51l.016.014.006.02c.105.327-.09.642-.302.91 0 .082.058.127.148.192.096.068.216.153.18.322l-.01.043-.04.01c-.43.11-.858.022-1.175-.24-.084-.072-.143-.17-.2-.27-.09-.152-.175-.297-.352-.325-.15 0-.22.147-.31.37-.033.076-.062.148-.1.208-.028.07-.04.174-.05.284-.022.183-.044.39-.186.516l-.023.02-.26-.03c-.976-.33-1.9-.84-2.922-1.605-.422-.327-.752-.777-1.07-1.21l-.258-.35-.01-.02-.09-.31c-.154-.56-.327-1.194-.962-1.355-.184.02-.335.048-.353.186l-.066.317h-.058c-.166 0-.33-.046-.49-.09-.243-.065-.504-.122-.722-.046-.165.11-.363.25-.487.437-.003.175.094.222.26.285.136.05.305.116.344.316.002.26.163.48.304.672.034.046.066.09.093.132l.026.036-.022.04c-.057.095-.137.17-.214.242-.075.07-.145.135-.193.216l-.235.593c.087.176.196.38.396.41.188-.073.407-.04.604.007.14.032.283.064.437.048h.043c.048 0 .104-.008.16-.016.065-.01.13-.02.194-.02.19 0 .295.097.313.287.093.238.05.453.01.66-.015.075-.03.15-.038.224l-.012.032c-.318.465-.757.842-1.27 1.088-.1.066-.11.246-.066.384.067.09.18.13.352.13.098 0 .202-.014.303-.025.047-.007.093-.013.135-.017.275-.014.518-.104.754-.19.217-.08.44-.164.687-.19l.048-.005.023.044c.075.15.277.516.548.65.015.002.042.006.07.006.116 0 .206-.076.3-.156.103-.087.218-.186.378-.186.05 0 .105.01.16.03l.02.012c.187.147.248.358.306.562.05.18.1.35.233.484l.018.017.002.024c.018.18-.115.236-.203.273-.032.014-.062.025-.086.043l-.016.008c-.17.06-.363.075-.55.09-.3.022-.584.044-.77.233-.03.163.13.305.242.357.318.175.726.236 1.12.297l.176.027c.148.02.35.005.534-.013.24-.023.496-.035.682.015l.09.024-.194.306-1.236.834c-.238.1-.472.178-.7.25-.347.114-.677.224-.975.386-.094.024-.17.036-.243.036-.338 0-.59-.203-.83-.4-.246-.196-.478-.382-.78-.36-.265 0-.457.076-.668.262-.136.136-.186.367-.13.616.03.062.105.088.19.117.103.037.246.087.246.272-.014.374-.182.693-.345 1.002-.154.297-.316.603-.338.956-.024.156.022.346.18.41.117.062.272.02.357-.064.047-.048.078-.105.11-.165.064-.115.135-.247.33-.283h.02c.135.015.246.022.346.022.358 0 .607-.09.784-.28l.017-.02.024-.004c.187-.03.383.152.383.325 0 .19.01.33.124.384h.02c.493 0 .77-.468 1.016-.88l.104-.174.017-.025.03-.005c.073-.014.15-.04.228-.064.127-.042.26-.086.393-.086.105 0 .2.026.286.083l.024.015.006.027c.072.29-.046.526-.16.752-.066.134-.13.26-.157.4.02.065.112.136.208.16.61-.085 1.003-.593 1.384-1.083.068-.09.135-.175.203-.26l.005-.015c.072-.153.17-.365.43-.365l.02.003c.056.018.108.026.157.026.238 0 .386-.21.543-.43.097-.135.197-.275.324-.367l.02-.015h.225l.015.05c.03.102.012.187-.003.263-.015.07-.027.132-.003.2.127.133.293.07.46-.01.078-.036.157-.073.237-.09l.55-.34.03.01c.576.18 1.186.325 1.774.463l.17.04c.353.132.316.41.285.636-.024.178-.047.345.076.47l.035.03-.02.046c-.072.18-.278.275-.595.275-.31.042-.65.05-.977.055-.81.016-1.65.03-2.264.61l-.554.544h-.027c-.43.014-.745.217-1.078.433-.277.18-.563.364-.917.427-.19.127-.412.143-.585.143-.072 0-.146-.002-.218-.006-.07-.003-.137-.006-.204-.006-.244 0-.433.04-.558.234.25.484.85.646 1.38.79.084.036.18.042.285.048.185.01.392.02.49.217l.005.022c.027.254.076.51.335.6.062.02.136-.016.208-.058.062-.04.127-.077.205-.077.06 0 .117.022.17.07.14.19.3.324.458.454.176.147.342.283.462.475l.022.035-.02.037c-.082.15-.217.224-.416.224-.098 0-.2-.016-.3-.032-.09-.016-.177-.03-.253-.03l-.03-.007-.034-.016c-.082.01-.167.026-.254.042-.17.03-.35.062-.52.062-.285 0-.497-.09-.652-.274-.13-.094-.25-.203-.368-.308-.333-.297-.648-.577-1.12-.58-.375.098-.73.24-.8.618-.026.138.06.218.158.31.05.046.1.093.133.146l.038.06-.057.038c-.613.415-.867.86-.755 1.317l.01.025c.052.123.09.198.2.198.077 0 .15-.028.227-.057.138-.052.297-.092.438-.014l.032.02.004.033c.01.086.015.18.02.28.014.33.03.672.325.8.104-.02.203-.07.3-.12.125-.063.254-.13.4-.13.11 0 .215.037.32.115.05.022.11.036.173.036.155 0 .302-.082.46-.174.1-.06.205-.12.315-.155l.022-.002c.546 0 .763.476.938.856l.025.057.073.058c.236.18.53.406.82.406.087 0 .17-.02.248-.06.105-.164.074-.347.04-.54-.043-.26-.093-.56.28-.74.117-.035.227-.05.358-.05.068 0 .137.005.206.01.165.008.33.01.465-.02l.01-.003.012.003c.163.015.323.03.485.03.51 0 .817-.15.99-.49l.496-.857.11-.563.042-.012c.138-.04.31.015.465.072.1.036.196.07.273.07.06 0 .125-.018.17-.147-.18-.525-.227-1.028-.148-1.583.11-.428.3-.78.553-1.027l.033-.032.2.083.01.036c.048.207.086.417.12.62.076.426.147.827.33 1.213l.008.018-.002.02c-.028.308-.126.598-.22.878-.085.254-.175.517-.21.79-.15.61-.578 1.123-1.176 1.42-.04.033-.2.182-.12.363.052.095.14.133.314.133.045 0 .09-.002.136-.004.11-.007.218-.008.3.006.76-.1 1.466-.466 1.992-1.035l.028-.03.04.01c.222.062.423-.042.605-.145.143-.082.29-.166.46-.166.1 0 .197.028.295.087.12.09.26.13.467.13.097 0 .198-.01.297-.02.097-.007.197-.015.292-.015.258 0 .568.057.674.51l.003.013-.002.015c-.02.11-.004.255.014.407.044.367.1.823-.42.96l-.015.005-.015-.002c-.213-.034-.437-.145-.653-.25-.263-.13-.535-.264-.79-.264-.212 0-.397.093-.563.287-.083.078-.25.27-.15.482.096.16.258.435.044.624l-.028.053c-.17.29-.365.62-.236.946.08.142.253.19.528.137.065-.03.144-.044.23-.044.17 0 .334.063.492.123.14.052.274.104.406.112l.022.002.115.09c.28.225.565.462.928.442.07-.046.098-.128.13-.22.024-.076.053-.162.112-.235.112-.094.25-.142.383-.19.25-.087.464-.162.464-.446.083-.44.45-.788.765-.976l.03-.017.03.013c.126-.002.696-.166.9-.443l-.074-.09-.102-.112c-.054-.06-.105-.115-.138-.147l-.018-.014-.004-.022c-.073-.325.102-.596.27-.855.212-.33.396-.613.124-.988l-.01-.02c-.04-.137-.057-.284-.075-.425-.04-.332-.08-.645-.357-.863-.157-.13-.346-.203-.546-.28-.17-.065-.347-.133-.513-.24l-.034-.023v-.036c0-.186.173-.207.277-.22.044-.004.09-.01.12-.022.275-.08.507.015.737.103.143.055.278.106.4.106.114 0 .208-.045.294-.147.03-.322-.265-.61-.502-.846l-.034-.035c-.332-.23-.757-.332-1.17-.43-.586-.14-1.193-.287-1.575-.823l-.035-.052.15-.14.035.01c.21.042.424.065.636.065.623 0 1.193-.197 1.605-.557.35-.45.713-.915 1.277-1.075.492-.383.592-.99.592-1.784.028-.294.158-.56.376-.78.12-.113.297-.167.468-.22.326-.102.512-.173.455-.447-.4-.207-.832-.405-1.32-.352l-.02.002-.02-.01c-.074-.04-.116-.092-.125-.152-.016-.11.08-.208.16-.285.026-.027.05-.052.065-.072l.02-.018c.183-.122.394-.233.598-.344.7-.374 1.425-.76 1.396-1.624-.023-.043-.036-.09-.05-.133-.034-.107-.054-.16-.145-.17-.17.022-.316.142-.47.27-.113.092-.23.19-.373.255-.373.21-.797.3-1.207.388-.448.096-.87.187-1.238.42l-.017.01h-.02c-.076 0-.133-.036-.16-.1-.04-.094.005-.225.057-.277.125-.173.312-.277.49-.376.22-.122.43-.238.534-.485.03-.074.057-.155.084-.238.11-.327.233-.7.598-.835.107-.082.234-.13.358-.18.172-.066.335-.13.42-.275-.035-.124-.197-.204-.33-.25-.128-.04-.26-.06-.393-.06-.602 0-1.14.405-1.482.746l-.022.015-.24.1c-.465.192-.945.392-1.282.75l-.014.015-.02.006c-.066.018-.152-.003-.21-.048-.053-.044-.083-.107-.083-.18-.096-.95.69-1.667 1.32-2.245l.197-.17c.16-.043.312-.14.472-.24.22-.14.45-.284.713-.284.105 0 .205.02.307.067.297.16.584.303.887.303.103 0 .2-.016.298-.048.284-.105.45-.33.628-.57.152-.205.31-.418.55-.564.06-.02.11-.027.163-.027.13.002.26.043.385.083zm-15.826-2.444c-.25-.173-.423-.43-.38-.76.054-.223.13-.5.38-.545.126-.027.254.042.254.168-.08.328-.078.65.125.926.528.58 1.35.746 1.684 1.432h-.21c-.632-.4-1.194-.91-1.853-1.22zm-6.86-.885c.005-.133.037-.227.083-.252.14-.08.38.268.38.42.026.132.052.237 0 .338-.1.098-.223.012-.294-.043-.153-.124-.223-.34-.17-.463zm2.398 5.095c-.248-.027-.464.305-.715.125-.256-.203.086-.657-.295-.756-.427.18-.798.668-1.306.59.33-.553.933-1.16.633-1.894-.08-.33-.287-.674-.59-.8-.304-.025-.498.32-.8.168-.126-.283-.654-.15-.423-.505.177-.312.893-.337.59-.844-.204-.275-.664-.124-.716-.504.052-.23-.15-.564 0-.715.613-.046.992.55 1.348.926.684.334 1.203 1.015 1.685 1.6 1.086.907 2.22 1.707 3.536 2.062.05.203-.102.398-.254.547-.434.453-.768.98-1.22 1.388-.1.025-.217.01-.296-.042-.453-.435-.394-1.32-1.178-1.346zM8.197 26.33c.02-.045.05-.11.085-.128.102-.057.242.025.336.085.178.178.548.242.548.547-.224.15-.6.25-.883.126-.15-.152-.06-.403-.086-.63zm7.536-.128c-.25.257-.65.043-.927.168-.38.098-.446 1.033-.926.42-.198-.07-.324.155-.422.254-.203.48-.408.925-.758 1.306-.08.045-.216.12-.295.04-.048-.32.227-.91-.252-1.01-.204-.023-.413.09-.59.17-.376-.028-.848-.005-1.052.377-.052.178-.112.396-.337.423-.23-.106-.532-.16-.63-.464-.106-.08-.255-.166-.38-.042-.204.204-.26.547-.59.547-.257 0-.47-.07-.674-.168.05-.586.693-.653 1.094-.884.81-.177 1.42-.69 2.23-.842 1.27-.48 2.298-1.44 3.284-2.4.152-.052.27-.083.42-.083.1.196.097.46.38.504.277.054.633-.295.76.086-.05.526-.078 1.146-.335 1.6zm.42.294c.324-.834.582-1.845.254-2.778-.08-.178-.248-.118-.38-.042-.15.1-.233.325-.462.252-.18-.275.197-.704-.21-.883-.348.08-.538.395-.842.547-.762.452-1.695.606-2.61.632-.178 0-.32-.055-.42-.127.23-.23.566-.27.842-.42 1.06-.632 1.748-1.79 2.61-2.652-.08-.375-.398-.83-.042-1.18.283-.026.365.307.59.38.38.203.895.304 1.304.126.357-.072.605-.386.63-.714.027-.15-.11-.242-.21-.295-.097 0-.206.016-.252-.084 0-.177.102-.31.252-.336.428.026.876.925 1.18.17.177-.606-.372-1.053-.8-1.434-.1-.124-.18-.25-.126-.42.33-.204-.086-.49.17-.715.426-.327 1.103-.135 1.557-.462.782.018 1.31.623 2.02.8.1.15.03.48.338.505.072 0 .168.09.168.168-.024.252-.096.507-.168.76-.078.202-.337.264-.337.546 0 .15.226.227.252.378l-.042 1.01c-.632.204-.334 1.024-.38 1.432-.078.33.027.64 0 .968-.15.073-.426.065-.505.294 0 .383.17.666.295.968.23.33.69.415.716.842-.33.027-.618-.196-.926-.295-.48-.257-.818-.76-1.095-1.22-.08-.072-.18-.1-.253 0-.052.302-.06.772-.336.968-.33-.195-.31-1.006-.842-.756-.18 1.085-.927 1.947-1.558 2.863-.152.046-.184.263-.38.21zm-4.924 7.157c.28.045.54.3.672.547-.223.15-.502.067-.757.042-.152-.125-.237-.4-.21-.548.094-.043.2-.056.294-.04zm8.502-2.57c-.433.412-.86.95-1.01 1.56 0 .426-.017.82-.043 1.22-.127.105-.258-.054-.337-.127-.205-.302-.142-.98-.674-.884-.277.31-.556.778-.38 1.18.223.328.67.582.42 1.01-.38.203-.25.796-.757.84-.763.108-1.543-.236-2.147.296-.204.176-.36.425-.464.673-.348.056-.244-.426-.42-.63-.125-.203-.37-.063-.548-.168-.276-.1-.555-.398-.884-.17-.282.15-.598.488-.926.212l-.464-.127c-.024-.15.167-.353.043-.504l-.885-.38c-.054-.08-.01-.2.043-.252.736-.48 1.58.068 2.442-.083.56-.204 1.077-.062 1.685-.042.328.026.72.108.926-.17.126-.184.21-.47.085-.672-.26-.552-1.08-.688-1.18-1.348-.052-.124-.128-.24-.253-.294-.204-.07-.343.184-.548.085-.052-.178-.097-.432-.294-.505-.38 0-.85.175-1.18-.083.052-.198.312-.153.463-.253.534-.106.994-.443 1.474-.674l.716-.084c.73-1.184 2.23-1.126 3.494-1.178l1.264-.38c.426.1.516.613.59.968-.026.38-.047.64-.252.968zm3.2 7.117c.09-.056.253.053.294.127.02.13-.158.083-.21.083-.107.025-.125-.034-.17-.083.007-.056.055-.11.085-.127zm6.23-17.724c-.408-.078-.742-.498-1.222-.294-1.243.578-2.57 1.437-2.904 2.903-.146.56-.114 1.19.295 1.642.1.054.232.054.338 0 .25-.452.447-1.046 1.053-1.178.355-.126.723-.26 1.053-.465.053 0 .142-.062.17.043-.153.428-.362.944-.843 1.095-.356.303-.712.683-.757 1.135-.028.232-.05.54.126.717.178.15.387-.068.546-.17.65-.807 1.666-.914 2.652-.967.046.08-.112.228-.21.254-.835.277-1.618.975-1.895 1.808.026.126.105.207.21.254.402-.047.746-.265 1.18-.21.1.274-.356.274-.463.504-.782.685.003 2.213-1.305 2.44-.382.107-.34.535-.59.758-.428.56-1.142.712-1.853.632-.506.053-.913-.65-1.346-.17.052.502.465.794.715 1.223.64.612 1.506.627 2.317.884.1.027.198.112.252.21 0 .177-.23.112-.38.086-.506.072-1.1.16-1.6-.04-.08-.028-.14.093-.17.165.073.56.672.75 1.054 1.053.38.178.917.134 1.095.59v.588c.176.277.246.613.168.97-.35.4-.572.94-.296 1.472-.15.123-.395-.015-.548.082-.176.382-.667.473-.8.843-.024.31-.2.588-.504.632-.257-.02-.408.093-.632.042-.16-.177.065-.442-.21-.547-.357-.07-.505.458-.885.25-.18-.097-.342-.156-.42-.333-.022-.232.22-.318.377-.422.83-.098 1.93-.23 2.23-1.136.048-.436-.155-.804-.084-1.18-.124-.48-.614-.79-1.094-.84-.455-.126-.975.034-1.305-.297-.132-.097-.264-.198-.422-.126-.124.026-.178.206-.337.126-.125-.124-.313-.302-.463-.126-.303.607-.737 1.3-1.473 1.43-.1-.176.096-.384.168-.588.23-.483.408-1.034.506-1.558.203-.283.453-.636.296-1.01-.302-.863-.677-1.785-.422-2.78.176-1.157-.107-2.247-.968-3.03-.48-.274-.854-.778-1.432-.883-.38-.127-.98.044-1.178-.34.046-.4.503-.653.673-1.008l.675-.97c.275-.053.18.322.463.296.527 0 .5-.865 1.052-.59.256.357.67.454.927.758.354 1.448.865 2.835 1.852 4 .76.987 1.946 1.744 3.156 1.39.33-.276.765-.573.842-1.053.33-2.302-2.58-3.452-2.357-5.726.203-2.152 2.382-3.332 4.125-4.166.96-.507 2.194-1.157 2.273-2.4-.027-.125-.003-.21.042-.336.356.125.354.554.38.884.08.4-.31.635-.212 1.01.107.203.406.28.38.505-.958.028-1.1 1.29-2.062 1.263zM39.095 14.347H.375V11.59h38.72v2.757zm-5.616-2.183H29.19v1.61h4.287v-1.61zm-28.66 0H.936v1.61H4.82v-1.61zm9.512 0h-4.287v1.61h4.287v-1.61zm9.603 0h-4.28v1.61h4.28v-1.61zM12.504 8.815c.048.002.095.004.144.004.255 0 .423-.052.474-.306.055-.22.04-.418-.04-.564-.242-.212-.58-.212-.935-.212h-.02l-.016-.01c-.216-.122-.173-.36-.146-.516l.003-.02c-.09-.43-.058-.85-.025-1.258.023-.294.048-.598.026-.908l-.002-.024.135-.202.03-.006c.114-.026.225-.033.332-.04.22-.013.41-.025.57-.202.055-.096.15-.31.066-.5-.024-.125-.13-.187-.242-.25l-.044-.026c-.094-.063-.215-.052-.325-.047-.182.005-.39.018-.485-.195l-.006-.025c-.027-.416-.027-.804-.027-1.215-.082-.12-.205-.172-.41-.172-.082 0-.166.007-.248.014-.158.014-.314.023-.428 0-.474.025-.955-.002-1.42-.026-.322-.018-.655-.037-.978-.037-.707 0-1.23.092-1.705.295l-.03.01-.028-.012c-.37-.162-.805-.254-1.335-.283-.164-.008-.336-.018-.51-.03-.277-.018-.563-.035-.838-.035-.288 0-.528.02-.733.063-.107.01-.213-.01-.312-.02-.1-.013-.204-.025-.3-.025-.203 0-.326.054-.404.18l-.104 1.263-.014.018c-.123.147-.285.165-.412.165-.052 0-.107-.002-.162-.006-.053-.004-.105-.007-.156-.007-.15 0-.246.034-.32.115-.182.154-.14.328-.088.53.063.21.235.287.49.343l.033.014c.047.04.11.044.182.044h.04c.09 0 .222 0 .316.128l.012.027c.107.535.082 1.04.056 1.53-.02.364-.036.71-.003 1.068l.003.035-.173.172-.025.003c-.06.006-.122.01-.183.013-.202.013-.393.023-.537.133-.177.153-.182.36-.182.622.024.03.045.065.066.1.068.112.116.182.213.195l.025.01c.065.035.14.042.236.042h.11c.14 0 .3.012.428.156l.016.03c.054.2.042.405.03.602-.017.292-.032.545.165.732.39.008.786.013 1.183.02.833.01 1.695.022 2.562.06h.02l.092.063c.198.132.384.26.624.304.315-.026.613-.15.838-.35l.02-.017h.024c.337-.022.706-.03 1.125-.03.502 0 1.018.013 1.52.026.492.013 1 .026 1.5.026.07-.214.055-.5.04-.758-.005-.104-.01-.203-.01-.294-.026-.18 0-.316.076-.404.096-.112.254-.127.396-.127.046 0 .094 0 .142.002zm-1.668-6.01c.106-.13.263.025.316.132-.027 2.126.025 4.217-.054 6.13-.053.106-.156-.025-.236-.078-.13-.317-.027-.71-.027-1.02-.077-1.705 0-3.435 0-5.164zm-3.77-.054c.153-.307.522-.412.864-.412l2.46.026.078.125c0 2.124 0 4.143-.025 6.21-1.047.104-2.225-.08-3.275.21-.23-.21-.055-.552-.1-.836-.052-.684 0-1.44-.034-2.15.033-1.02-.046-2.17.033-3.173zM3.66 6.82c.026-1.316.053-2.914.053-4.328 0-.105.132-.15.21-.177.916.072 1.91-.158 2.645.308l.106.238c.052 1.756.052 3.54.052 5.374l-.052.68c-.448.023-.896-.213-1.39-.16-.5-.053-1.052.052-1.492-.08-.263-.598-.08-1.202-.132-1.854zM3.346 2.7c.104 2.126-.028 4.165.026 6.184-.026.105-.133.237-.264.237-.157-.658-.132-1.283-.08-1.94-.052-1.336-.025-2.828-.025-4.163.053-.132.21-.266.343-.317zm2.75 7.28c-.263.106-.58.056-.863.056l-2.67-.055c-.185-.156-.106-.526-.106-.728 0-.264.08-.58-.21-.74-.37-.077-.738.028-.973-.26.183-.522 1.025-.1 1.183-.68.08-.97-.08-1.94-.026-2.854-.106-.524-.683-.366-1.052-.445-.05-.052-.124-.132-.103-.237.315-.31.946.052 1.183-.388.105-.42.026-.817.08-1.204.13-.13.36-.13.546-.08v.105c-.24.178-.547.52-.442.836.1 2.196 0 4.163.1 6.227l.183.212c1.025 0 2.15-.107 3.144.078.05.026.05.106.025.158zm.13-.42c-.835-.228-1.756-.072-2.643-.177l-.028-.027c.053-.156.185-.29.37-.29.886 0 1.75 0 2.54.187.023.13-.108.255-.24.306zm.942.764c-.107.132-.31.156-.468.078-.16-.025-.185-.21-.21-.342-.053-.29.236-.388.395-.606.205.033.335.166.44.29.05.212.026.475-.157.58zm.42-.79c-.106-.02-.212-.098-.212-.23.08-.237.37-.16.58-.237.81.027 1.783-.025 2.566 0 .13.055.262.157.34.29-.078.157-.315.08-.473.13H9.55c-.683-.032-1.36-.076-1.964.048zm4.137-.783c-.08.422.052.843-.08 1.258l-.185.078-3.69-.05c-.08-.056 0-.107.026-.16l.368-.13 2.988.023c.308-.078.308-.468.335-.704-.026-1.467 0-2.748-.026-4.162-.024-.71.107-1.388-.05-2.074-.028-.156-.257-.262-.285-.44.158-.08.442-.08.546.077.08.417-.103.97.16 1.383.262.158.658.08.92.132.106.105.08.262.028.37-.29.287-.896-.08-1.053.393 0 1.02-.054 2.012.025 3.065l.158.13c.343.054.763-.077.994.18.026.158 0 .315-.152.368-.34.08-.842-.106-1.025.263zM25.944 8.5c.04-.173 0-.327-.12-.472-.11-.162-.274-.183-.464-.206-.176-.02-.358-.044-.497-.185l-.02-.02-.002-.025c-.08-.906-.05-1.577 0-2.496l.01-.026c.112-.244.36-.26.578-.274.19-.012.368-.022.475-.16.112-.135.114-.42.043-.585-.11-.246-.353-.282-.61-.32-.125-.02-.254-.037-.37-.082l-.033-.014-.01-.034c-.07-.247-.063-.48-.056-.706.007-.21.013-.428-.043-.654l-.05-.032c-.104-.067-.22-.146-.323-.126-.21.022-.43.033-.678.033-.346 0-.7-.02-1.042-.042-.342-.02-.696-.04-1.04-.04-.686 0-1.225.088-1.696.28-.082.053-.18.082-.285.082-.166 0-.323-.07-.474-.138-.124-.055-.24-.107-.358-.123l-2.372-.026c-.108.02-.325.01-.514-.004-.113-.01-.23-.02-.338-.02-.317 0-.503.08-.62.264l-.086 1.244c-.105.186-.32.188-.51.19-.1 0-.205.002-.29.027-.262.046-.414.274-.37.543.048.362.334.39.664.417.153.013.31.027.444.08l.045.017v.05c0 .19.015.37.03.547.023.31.047.626-.002.984l.026 1.166-.017.02c-.16.188-.4.19-.632.193-.234.003-.456.006-.588.19-.068.2-.086.36-.052.463.125.295.435.316.763.337.155.01.315.02.45.065l.037.013.01.037c.077.305.058.607.042.898-.007.117-.014.235-.014.353.14.192.354.275.71.275.122 0 .247-.01.37-.018.15-.01.308-.023.45-.015.382-.016.777-.008 1.164 0 .373.007.747.013 1.132 0h.015l.672.295c.284.16.552-.012.812-.186l.112-.073.016-.01 1.066-.025c.425-.03.954-.016 1.433.008.278.012.565.025.846.025.338 0 .624-.02.897-.06.177-.1.17-.238.143-.473-.017-.15-.035-.302.024-.45.026-.063.017-.14.008-.22-.015-.123-.03-.262.09-.36l.03-.016c.073-.017.148-.03.223-.043.304-.05.592-.097.746-.337zm-2.21-5.668c.13-.08.342.08.342.237v-.002c-.026 1.996.053 4.14-.078 6.078-.106.027-.237-.104-.265-.21-.025-.816-.104-1.625-.052-2.486.054-1.13-.077-2.46.054-3.618zm-3.82 5.527V2.91c0-.184.125-.342.283-.395.29-.204.684-.123 1.052-.178l2.064.054.054.147c-.028 2.05.024 4.147-.028 6.185l-.105.054c-1.125.104-2.223-.187-3.242.183-.185-.106-.027-.42-.08-.604zm-3.3-5.915c-.028-.112.078-.05.13-.08.862.054 1.88-.13 2.643.205.238.21.21.578.21.894-.025.993.055 2.17-.052 3.223l.028.36c.053.685 0 1.232-.028 1.942-.314-.055-.657-.158-.992-.21-.657 0-1.288.052-1.916-.055l-.05-.235c0-2.04.026-3.98.026-6.045zm-.423.203l.106.105c.08 1.81-.105 3.435 0 5.243-.156.415.185 1.02-.422 1.125-.104-1.808-.025-3.75-.08-5.71-.05-.314.134-.604.397-.762zm2.41 7.49c-1.048-.024-2.17.054-3.192-.078l-.104-.08c-.027-.466.025-.966-.185-1.386-.316-.132-.705 0-1.048-.105-.158-.08-.104-.29 0-.39.343-.185.994.1 1.177-.37-.026-1.025.054-1.992 0-3.036-.29-.42-.888-.027-1.15-.42.104-.602.94-.08 1.177-.574l.08-1.232c.157-.156.367-.104.544-.077-.05.23-.255.31-.36.495-.16.42.026.842-.054 1.28.027 1.81 0 3.514.027 5.29 0 .14.098.29.23.316l2.808.055c.152.025.336.08.442.185-.05.156-.262.104-.393.13zm-2.41-.702c.08-.132.16-.262.29-.37.915.08 1.913-.05 2.802.188.105.024.235.13.158.255l-.21.184c-.914-.336-2.072-.106-3.04-.258zm3.618 1.02c-.183.025-.474 0-.474-.265.052-.182.21-.34.394-.445.185-.052.283.132.337.237 0 .21-.026.475-.257.475zm.548-.815c-.16.027-.337 0-.363-.178.098-.237.415-.316.677-.34.94-.08 1.86 0 2.775 0 .132.078.29.21.29.34l-.132.046c-1.098.027-2.23-.124-3.247.133zm4.268-.89c-.08.474.13.888-.055 1.336l-.132.08c-1.335-.027-2.644-.027-3.9-.053-.05-.027-.026-.106.028-.133l.235-.132c1.047-.104 2.198 0 3.303-.104.16-.026.283-.152.256-.31 0-1.993.026-4.066.026-6.29-.052-.315-.362-.498-.414-.78.184 0 .52-.106.624.124 0 .474-.027.894.08 1.362.314.29 1.204-.124 1.018.58-.282.183-.676.05-.99.104l-.08.107c-.132 1.047.08 2.126 0 3.066.025.105.08.29.236.31.288.032.737-.18.834.19-.045.624-.86.053-1.07.545zM37.974 8.768c.087-.01.17-.02.228-.048.192-.074.304-.208.327-.39 0-.174-.114-.314-.238-.46-.107-.054-.227-.078-.352-.104-.153-.03-.312-.062-.45-.15l-.033-.023v-.038c0-.302-.01-.604-.018-.896-.018-.582-.035-1.13.018-1.658l.002-.02.014-.017c.128-.163.32-.167.49-.17.145-.003.282-.007.377-.1.122-.14.262-.304.216-.535-.04-.336-.248-.378-.582-.418-.195-.022-.396-.047-.543-.17l-.02-.02-.004-.024c-.03-.174-.022-.358-.012-.534.015-.306.028-.596-.143-.826-.3-.06-.614-.066-.918-.072-.314-.006-.638-.013-.955-.076-.313.05-.653.054-.98.056-.636.006-1.294.012-1.78.374l-.03.023-.036-.014c-.093-.03-.185-.065-.276-.1-.292-.11-.567-.213-.876-.213l-3.562-.078-.09.067-.05 1.353-.064.163-.03.01c-.126.04-.26.06-.39.08-.29.04-.562.077-.696.347-.052.304.008.513.18.62.085.06.232.063.375.064.253.003.566.008.605.358-.014.46-.002.907.01 1.383.008.32.017.654.017.988l-.002.02c-.062.22-.26.22-.354.22h-.125c-.055 0-.117.002-.16.027l-.02.008c-.154.034-.418.128-.443.383-.024.19.02.42.22.507.09.043.205.058.326.072.203.023.433.053.55.245l.006.016c.053.18.038.385.022.582-.022.31-.042.6.172.8l2.276.027c.092.002.185.003.28.003.156 0 .314-.003.474-.003.52 0 1.114.026 1.586.328.056.02.12.033.19.033.2 0 .385-.113.565-.225.058-.035.115-.07.17-.1l.018-.01h.018l3.086.032c.3 0 .613 0 .88-.115.03-.19.02-.39.012-.584-.01-.238-.02-.485.037-.714.087-.237.31-.264.49-.286zm-1.788-5.99c.104-.236.315.108.394.24-.053 1.464-.025 2.852.026 4.24-.026.658-.026 1.232-.026 1.836-.025.05-.025.078-.08.105-.446-.187-.287-.687-.314-1.074.027-.553-.053-1.183.052-1.73l-.08-.185.028-3.43zm-6.835-.413c.916 0 1.705.028 2.567.1.578.184.422.867.446 1.31-.032.168-.08.327-.125.492l.106.224.4.08.126-.283c-.065-.224-.132-.447-.19-.664.052-.37-.08-.736.183-1.052.546-.343 1.31-.125 1.988-.237l.942.033c.132.205.104.495.104.732 0 1.256.028 2.433-.027 3.617 0 0 .054 1.59-.047 2.04l-.21.078c-.945.106-1.94-.21-2.75.263-.157.027-.157-.184-.182-.263l.053-2.698c.027-.025.04-.045.052-.06l-.045-.15-.455-.052v.164c.12.033.08.21.106.283.03.887.03 1.854-.05 2.67-.29.078-.476-.185-.757-.185-.737.052-1.42-.078-2.177.027-.264-.105-.184-.42-.184-.658-.026-1.986 0-3.717-.026-5.73.025-.05.104-.08.155-.08zm-.523.31c.104.235.05.393.104.63v5.63c-.05.16-.235.237-.34.343l-.105-.078c-.02-.606.026-1.284-.02-1.863V6.89c-.033-1.23-.033-2.593.02-3.85.104-.103.21-.313.342-.366zm2.96 7.44c-1.258-.028-2.514.076-3.743-.028l-.107-.132c-.05-.468.054-.913-.156-1.335-.288-.262-1.123.08-.913-.52.308-.235.81.078.993-.315 0-1.1.053-2.073-.026-3.09-.238-.318-.684-.107-.993-.187-.104-.106-.182-.264-.08-.394.342-.283 1.336.08 1.153-.732.104-.342-.158-.992.315-1.02.106 0 .237-.032.31.08-.053.204-.31.362-.39.57.028 2.153 0 4.482.08 6.703l.185.106c1.15.026 2.38-.235 3.375.237.05.03.024.03 0 .057zm-.732-.58c-.684-.08-1.44 0-2.125-.08.185-.57.993-.23 1.44-.333.606.078 1.283-.107 1.81.21.08.052.08.183 0 .203-.316.37-.703-.08-1.125 0zm1.6.945c-.212.028-.395-.078-.448-.262-.054-.263.104-.5.29-.606.236-.025.342.157.446.29.027.237.027.578-.29.578zm.52-.787c-.16-.026-.21-.205-.16-.31.21-.238.553-.184.87-.238l2.143.055c.132.078.263.21.29.335-1.073.132-2.118-.124-3.144.158zm4.012-.942l-.055 1.31-.184.078-3.485-.024c-.054-.054-.027-.08.025-.106l.422-.158h2.645c.13-.025.315-.13.315-.316-.027-2.064-.052-4.215-.052-6.466l-.316-.624c.133-.132.5-.158.58.046.105.5-.106 1 .183 1.442.31.078.81-.107.97.21-.027.63-.89.132-1.074.63.08.994-.08 1.81.028 2.882-.106.077-.132.183-.055.288.283.236.652-.156.942.105.185.053.08.21.08.31-.24.342-.812-.046-.968.394z"
      fill-rule="nonzero"
      fill="currentColor" />
    <path
      d="M19.282 6.608c-.316-.264-.395-.658-.658-.975.105-.156.29-.183.42-.315.21-.204.422-.493.317-.81-.026-.264-.157-.526-.42-.657-.548-.202-1.256-.123-1.81-.07-.105.052-.13.15-.052.23.21.078.29.235.316.42-.027.71-.027 1.415-.105 2.125l-.29.31c.29.263.684.06 1.105.13.104-.183-.185-.315-.238-.52.053-.21 0-.497.132-.683.393.342.526.888.992 1.204l.618.046-.02-.335c-.077.05-.23-.074-.308-.1m-.815-1.288c-.178 0-.467.13-.52-.1.025-.343-.13-.79 0-1.105.236-.184.606-.106.783.13.104.186.104.422.104.632-.104.186-.158.395-.367.442m14.397.735c.106.157.18.316.158.52l-.21.29.13.104c.31-.026.732.078 1.022-.053-.08-.158-.265-.21-.37-.315-.368-.962-.624-1.98-.913-2.976l-.316.152c-.183.888-.552 1.698-.762 2.618-.045.177-.23.205-.362.31-.184.052-.263-.16-.342-.257-.025-.79.08-1.443.028-2.285-.028-.13.13-.29.263-.156.21.105.182.366.26.55.055.08.187.08.205-.052l.133-.81c-.106-.262-.337.028-.547 0-.393-.026-.946.08-1.314-.157-.308.107-.23.547-.282.836-.025.054 0 .105.026.132.256-.156.387-.577.756-.474l.026.79-.08 1.704c-.105.132-.36.177-.34.36.445.133.998 0 1.446.054.256.025.546.08.756 0 .052-.054.028-.132-.025-.185-.16-.08-.344-.21-.29-.414.08-.132.105-.395.342-.316.058 0 .08.032.097.072l.374.045v-.012c.05-.05.05-.078.13-.078m-.553-.368l-.13-.054c.08-.288 0-.625.24-.836.234.16.208.522.313.81-.052.132-.29.132-.422.08m2.942-1.783c0 .19.137.53-.025.67-.186-.164-.21-.322-.508-.402-.16 0-.317.027-.35.21-.053.567.512.567.83.936.295.296.427.776.295 1.15-.124.303-.268.482-.56.482-.267.053-.46-.132-.67-.026-.052 0-.157.05-.218-.027l.033-1.038c.027-.054.08-.08.133-.08.158.34.05.744.532.77.158-.025.29-.047.316-.256.06-.935-1.17-.704-1.144-1.665.027-.22.053-.403.164-.587.21-.35.692-.138 1.013-.35.134-.05.134.13.16.21m-13.144-.052c-.263.133-.553.344-.475.71-.078.633-.05 1.284-.024 1.968l.422.36-.026.054c-.448 0-.862.08-1.31 0-.184-.204.237-.31.316-.468.08-.737.16-1.492.08-2.31-.08-.233-.474-.13-.37-.386.397-.052.914-.052 1.31 0l.077.073zm-12.713.502c-.264.315-.316-.29-.578-.317-.16-.02-.396-.072-.522.053-.052.343-.104.658 0 .975.106.077.31.052.442.052.158-.106.237-.397.448-.368.13.13-.054.34.025.473-.053.204.13.44-.105.52-.158-.08-.238-.368-.448-.368l-.362.027c-.132.472-.08.894 0 1.34.204.204.468.02.704.02.342-.072.265-.546.552-.493.08.185.107.474.054.678l-.16.103-1.86-.025c-.08-.028-.264-.028-.184-.16.605-.36.263-1.072.34-1.644-.077-.423.238-1.054-.314-1.31-.026-.157.158-.11.21-.157.474 0 1.098.18 1.467-.21.29.157.263.52.29.81M6.54 3.93c-.524.422-.55 1.157-.788 1.757-.21.342-.106.842-.44 1.13-.132.047-.238-.078-.264-.184-.184-.815-.42-1.625-.71-2.388-.026-.235-.572-.29-.257-.466.39-.053.68.052 1.048.02.078.235-.29.366-.185.656.237.34.158.863.448 1.203l.132-.13c.02-.6.704-1.154.124-1.68.132-.23.528-.07.79-.15.052.046.238.1.105.23"
      fill-rule="nonzero"
      fill="currentColor" />
    <path
      d="M19.737 47.995s-.226-.148-.445-.296c-4.114-2.827-7.784-6.347-10.89-10.218C3.59 31.486.162 24.224.007 16.307L0 0h39.472l-.007 16.307c-.156 7.917-3.583 15.18-8.395 21.175-3.107 3.87-6.777 7.39-10.89 10.217-.17.113-.208.14-.32.212-.032.02-.123.083-.123.083zm0-.975l.102-.07c9.67-6.73 18.567-18.07 18.815-30.656.06-5.123.007-10.32.007-15.484H.81c0 5.164-.054 10.36.006 15.484C1.064 28.88 9.963 40.22 19.632 46.95l.104.07z" fill-rule="nonzero" fill="currentColor"/>
  </symbol>
  <symbol id="harvard-seas" viewBox="0 0 14 16">
    <path
      d="M.31 4.647l-.14.034v.49c.066 1.105.207 2.007.474 2.986h.15C.525 7.17.375 6.273.31 5.168v-.52zM12.236 10.66c-.017.002-.03.003-.047.003-.32.567-.705 1.144-1.167 1.718-.64.797-1.427 1.59-2.393 2.348.014.035.023.073.028.118l.006.04-.002.002c1.746-1.358 2.927-2.84 3.705-4.25l-.03.01c-.028.004-.062.01-.1.012zM6.187 15.382c-1.14-.686-3.125-2.178-4.476-4.84-.01.01-.03.028-.05.04l-.067.05c1.397 2.738 3.455 4.247 4.594 4.92v-.17z" fill="currentColor"/><path d="M13 7.482c-.093.053-.157.134-.235.242-.148.208-.267.37-.313.43H11.094c.04-.078.09-.187.127-.27.027-.062.048-.127.048-.195 0-.064-.022-.135-.078-.184-.056-.05-.135-.075-.237-.083-.112-.008-.205-.013-.285-.013-.153 0-.262.018-.354.07-.093.055-.157.135-.234.244-.15.208-.268.37-.315.43h-1.83v-.13c.06-.045.222-.164.43-.313.108-.076.19-.14.242-.232.053-.092.07-.202.07-.354 0-.08-.005-.173-.013-.286-.007-.104-.032-.182-.08-.238s-.12-.08-.185-.08c-.068 0-.134.022-.194.048-.084.036-.193.09-.273.127v-1.41l.417-.312.243-.182c-.05-.017-.09-.048-.117-.077-.02-.022-.036-.044-.045-.06l-.01.003c-.16.048-.323.086-.416.124-.052.02-.1.03-.145.03h-.002c-.1 0-.173-.05-.216-.096-.017-.018-.028-.036-.038-.05l-.006.002c-.148.043-.297.08-.383.114-.052.02-.1.03-.145.03-.1 0-.174-.05-.215-.096-.022-.024-.037-.047-.047-.065l-.01.003c-.16.05-.33.09-.425.127-.052.02-.1.03-.144.03-.016 0-.03-.002-.044-.004V5.62l-.073-.035-.2-.092s-.126-.046-.193-.047h-.002c-.062 0-.132.022-.18.078-.042.046-.065.107-.077.184l-.006.054c-.007.092-.01.17-.013.24v.046c0 .152.02.262.07.354.035.058.08.104.134.15l.044.035.065.05.173.122c.005.002.01.005.013.01.116.083.204.148.247.18v1.207h-.38c-.047-.064-.165-.225-.314-.433-.026-.037-.052-.07-.077-.102-.048-.06-.096-.105-.157-.14-.054-.03-.112-.05-.18-.06-.053-.007-.11-.01-.176-.01h-.096l-.19.012c-.102.007-.18.033-.236.082-.028.024-.047.052-.06.082-.013.033-.02.068-.02.1v.005c.002.067.02.13.048.19l.034.075c.03.067.065.14.094.198H3.067c-.046-.063-.165-.223-.314-.43-.005-.01-.012-.018-.018-.026-.048-.068-.093-.124-.145-.168l-.006-.005c-.02-.017-.04-.032-.064-.045-.013-.008-.028-.015-.04-.02-.05-.023-.104-.036-.167-.043-.044-.006-.093-.01-.148-.01-.03 0-.06 0-.093.003l-.193.01c-.104.01-.182.035-.238.084-.04.036-.063.083-.072.13-.005.018-.007.036-.007.053 0 .067.02.132.047.194.037.083.09.192.128.272H.644l.025.092c.23.826.522 1.575.857 2.25.01.02.02.04.027.058l.038.075.07-.047.05-.04.034-.035.008-.01.03-.032.003-.006c.012-.013.02-.027.033-.04l.01-.015c.01-.012.02-.024.028-.038 0-.003.003-.004.004-.006l.195-.27.02-.026c.045-.06.078-.107.1-.135h1.226c-.02.038-.04.085-.063.132-.022.05-.045.097-.063.14-.003.006-.006.012-.008.02-.02.045-.034.093-.04.142v.033c0 .04.008.082.028.12.012.023.028.044.05.062.052.045.123.07.214.08h.023c.056.006.107.01.154.01.048.003.092.004.132.004.152 0 .26-.018.354-.07.093-.054.156-.135.233-.242l.128-.18c.086-.12.153-.208.186-.252h1.453v.604c-.08-.04-.188-.09-.272-.127L5.9 10.4c-.05-.02-.1-.036-.153-.04H5.72c-.062-.002-.133.02-.183.077-.044.05-.068.118-.08.206 0 .01 0 .02-.002.03-.008.103-.012.19-.013.265v.076c.002.047.006.09.013.128.01.065.028.122.058.173.04.068.093.12.162.174.024.02.052.038.08.06.093.065.176.126.244.176.086.063.15.11.187.14v1.224l-.147-.07-.065-.03c-.02-.01-.04-.018-.06-.025-.062-.026-.126-.047-.193-.048-.022 0-.046.003-.068.01-.043.01-.083.032-.115.07-.045.05-.07.118-.08.207l-.004.03c-.007.1-.012.187-.012.262v.074c0 .046.005.087.01.126.012.067.03.125.06.177.014.022.028.043.045.063.05.062.115.112.197.17l.273.198.158.116v1.133l.036.02.006.006c.036.02.07.038.103.058.425.24.688.35.692.35l.032.012.032-.02c.558-.346 1.07-.702 1.542-1.067l.03-.024.002-.002-.005-.04c-.007-.046-.017-.085-.03-.12-.015-.034-.033-.064-.057-.09 0 0-.002 0-.002-.002-.048-.05-.113-.07-.174-.07-.02 0-.04.004-.062.008-.045.007-.088.02-.13.04-.083.036-.192.088-.272.126v-1.41l.025-.02c.076-.056.223-.163.406-.294.108-.078.188-.142.242-.233.04-.072.06-.152.068-.255.002-.03.002-.064.002-.1 0-.08-.004-.175-.012-.287-.003-.03-.007-.06-.014-.088-.01-.04-.022-.072-.038-.102-.01-.018-.02-.032-.032-.047l-.018-.018-.002-.002-.008-.006c-.047-.037-.103-.053-.156-.052-.06 0-.118.017-.174.04l-.02.006c-.083.038-.192.09-.272.13V9.93h.573l.197.272.116.16c.036.05.068.094.103.132.02.024.042.046.066.066.02.016.04.03.063.045.092.053.2.07.353.07.08 0 .174-.005.287-.013h.01c.082-.008.147-.027.198-.06.002-.002.005-.003.006-.006.003 0 .006-.003.008-.005l.015-.01c.057-.05.08-.12.08-.184-.002-.063-.02-.124-.043-.182l-.006-.013-.01-.025-.112-.238V9.93h1.213c.047.064.166.226.313.433l.006.006c.073.1.136.178.223.23l.005.005c.093.053.2.07.354.07.067 0 .146-.004.238-.01l.048-.003c.038-.003.07-.01.1-.015l.032-.007.016-.028c.02-.036.04-.07.058-.106.03-.056.06-.11.087-.165l.012-.024-.007-.026c-.008-.028-.018-.057-.03-.085-.036-.083-.088-.192-.126-.27h.35l.02-.044c.002 0 .002 0 .003-.002l.046-.1c.363-.805.607-1.575.766-2.28l.02-.085-.075-.003h-.01l-.065-.003h-.077c-.156-.006-.265.012-.358.065zM.164 0v3.817h13.67V0H.165zM12.35 2.754l.013-1.972c0-.103.085-.04.085-.04l.08.142c-.02.103 0 .167 0 .167l-.014 1.853c.02.148-.053.064-.053.064-.038-.018-.117-.167-.117-.167l.006-.046zM9.614 1.85s-.014-.483 0-.528c0 0 .02-.444.006-.495 0 0 .008-.104-.012-.155 0 0 0-.065.11-.026 0 0 .04.072.257.04 0 0 .158.025.31.006 0 0 .336-.025.42 0 0 0 .132-.025.172.115l-.007.4.004.01c.015-.04.03-.09.068-.063.015.01.025.023.033.037l.006-.41s.028-.077.133-.09c0 0 .165-.02.19-.006.026.013.38.033.48.013.1-.02.118.063.414-.084 0 0 .08.006.08.058 0 0-.027.547 0 .65 0 0 0 1.003-.02 1.074l.013.32s.013.142-.217.155c0 0 .144.018-.763-.008 0 0-.145-.006-.302.064 0 0-.034-.005-.034-.09 0 0 .026-.3 0-.597l-.01-.26c-.018.005-.047.012-.062.005 0 .06-.002.148-.014.235-.01.08.026.457-.007.648 0 0-.005.064-.144.007 0 0-.84.018-.867-.007 0 0-.23.007-.25-.11.002.003.036-.877.015-.91zM9.49.743s.046 0 .04.077l-.014 1.942s.02.128-.09.212c0 0-.062.07-.062-.04L9.39.954c.002.002.008-.146.1-.21zm-1.803.01c.11-.154.177.155.177.155l-.027 1.933c-.007.065-.02.103-.02.103-.086.02-.137-.16-.137-.16L7.687.754zM6.615 2.598l.013-.816C6.622 1.75 6.643.78 6.643.78c.013-.103.248-.097.248-.097.625.02.61-.032.61-.032.114-.05.12.007.12.007.015.026-.012.283-.012.283.013.032-.015 1.832-.015 1.832-.02.104-.085.07-.085.07-.084.065-.504.026-.504.026-.132-.02-.343.033-.343.033-.032.04-.07-.018-.07-.018l.025-.284zm-1.032.142l.02-2.062c-.005-.053.073-.06.073-.06l.196.05c.047.04.546 0 .546 0 .112.01.118.156.118.156.026.347-.026 2.02-.026 2.02-.007.095-.086.017-.086.017-.32-.01-.446-.004-.446-.004-.046.02-.236 0-.236 0-.164-.02-.16-.116-.16-.116zM5.503.734s.016.128.016.16l-.022 1.86s.02.14-.105.21c0 0-.032.014-.04-.077L5.368.96s.013-.238.137-.226zM3.758.77c.112-.154.178.155.178.155L3.907 2.86c-.006.063-.018.1-.018.1-.087.02-.14-.16-.14-.16L3.757.77zm-1.07 1.835L2.7 1.79c-.008-.032.013-1.003.013-1.003.013-.103.25-.096.25-.096.624.02.61-.032.61-.032.11-.05.12.007.12.007.012.026-.016.283-.016.283.015.032-.012 1.83-.012 1.83-.02.104-.085.072-.085.072-.086.065-.506.025-.506.025-.132-.02-.343.033-.343.033-.03.038-.07-.02-.07-.02l.027-.283zm-1.033.15L1.674.69c-.007-.05.072-.058.072-.058l.196.052c.046.038.546 0 .546 0 .112.006.12.154.12.154.025.347-.028 2.017-.028 2.017-.007.098-.086.02-.086.02-.32-.012-.446-.006-.446-.006-.046.02-.236 0-.236 0-.165-.018-.158-.116-.158-.116zM1.574.75s.014.128.014.16l-.02 1.858s.02.142-.105.213c0 0-.032.013-.04-.077L1.44.973c0 .002.013-.235.137-.223zm.822 2.526H1.37c-.13-.007-.117-.102-.117-.102V2.93c.006-.13-.13-.156-.13-.156-.192.04-.238-.076-.238-.076-.006-.135.218-.123.218-.123.184 0 .13-.16.13-.16l.014-.97c-.014-.097-.25-.097-.25-.097-.152.026-.112-.117-.112-.117.073-.07.23-.062.23-.062.138.006.138-.142.138-.142L1.26.762c.15-.135.177-.026.177-.026-.085.13-.066.445-.066.445l-.005-.024C1.37 1.186 1.358 3 1.358 3c.013.2.15.154.15.154l.854.013c.08 0 .086.05.086.05 0 .066-.052.06-.052.06zm-.11-.207h-.678c-.1.02-.072-.07-.072-.07.06-.11.125-.084.125-.084l.15.038c.053.013.658.007.658.007.19.104 0 .148 0 .148l-.183-.04zm.393.327c-.132 0-.146-.123-.146-.123-.006-.16.12-.16.12-.16.06-.025.13.135.13.135.014.128-.105.147-.105.147zm.07-.372s.06-.063.1-.063c0 0 .658.057.77-.02 0 0 .098-.02.125 0 0 0 .1.077.1.123 0 0-.008.057-.127.025l-.78.006c-.002 0-.207.045-.187-.07zM4.126 1.49l-.02.932s-.014.16.145.154c0 0 .164-.006.196.045 0 0 .112.162-.13.148 0 0-.15-.007-.184.02 0 0-.028.032-.047.333 0 0 .013.182-.125.163 0 0-.914.013-1-.007 0 0-.09.026-.103-.045 0 0 0-.05.09-.05l.922-.006s.084.044.084-.11c0 0 .033-.7.037-1.472.002-.23.012-.47.003-.694 0 0-.02-.096-.047-.115 0 0 0-.103.113-.065 0 0 .098.007.07.155l.007.225s-.02.097.158.07c0 0 .177.026.184.09 0 0 .052.13-.16.117h-.15s-.065.038-.045.114zm2.2 1.77H5.302c-.13-.006-.117-.102-.117-.102v-.244c.007-.128-.13-.154-.13-.154-.19.038-.238-.078-.238-.078-.006-.135.217-.123.217-.123.184 0 .132-.16.132-.16l.013-.97c-.013-.097-.25-.097-.25-.097-.152.024-.113-.117-.113-.117.073-.07.23-.064.23-.064.138.007.138-.14.138-.14L5.19.747c.15-.135.177-.026.177-.026-.086.13-.066.445-.066.445s-.01-.057-.005-.025c.006.032-.006 1.844-.006 1.844.01.2.15.155.15.155l.853.01c.08 0 .085.052.085.052 0 .066-.052.058-.052.058zm-.11-.188h-.678c-.098.02-.072-.07-.072-.07.06-.11.125-.084.125-.084.027.006.15.04.15.04.053.012.658.005.658.005.19.103 0 .148 0 .148l-.183-.038zm.382.328c-.133 0-.146-.123-.146-.123-.006-.16.12-.16.12-.16.06-.026.13.134.13.134.014.13-.103.15-.103.15zm.084-.384s.06-.064.1-.064c0 0 .657.058.77-.02 0 0 .1-.02.125 0 0 0 .098.078.098.123 0 0-.006.058-.124.026l-.783.007c-.002 0-.206.045-.186-.07zm1.375-1.543l-.02.933s-.014.16.145.153c0 0 .165-.006.197.046 0 0 .11.16-.132.148 0 0-.15-.007-.184.02 0 0-.025.03-.046.333 0 0 .014.18-.124.16 0 0-.915.013-1-.006 0 0-.09.027-.104-.044 0 0 0-.05.093-.05l.92-.007s.084.043.084-.11c0 0 .033-.7.038-1.473 0-.23.01-.47.002-.694 0 0-.02-.096-.046-.115 0 0 0-.103.11-.064 0 0 .1.007.073.155l.007.223s-.02.098.16.07c0 0 .175.027.183.09 0 0 .053.13-.16.116h-.148c0-.003-.067.037-.047.113zm2.644 1.77s0 .046-.072.032c0 0-.546.052-1.04.033 0 0-.327.02-.348-.02 0 0-.053-.006-.053-.192 0 0 0-.173-.013-.206 0 0 .013-.09-.15-.11 0 0-.23.04-.236-.096 0 0 .03-.096.256-.083 0 0 .164.028.13-.1l.02-.952s.02-.167-.092-.175c0 0-.104-.005-.138.008 0 0-.19 0-.177-.11 0 0 .065-.115.256-.088 0 0 .145.026.15-.135 0 0-.006-.328.073-.34 0 0 .164.005.118.05 0 0-.08.142-.072.174l-.006.43s-.007.277 0 .31c.007.03-.007.84-.007.84s-.007.156 0 .208v.346s-.014.154.104.116c0 0 1.156-.025 1.23-.006 0 0 .104.018.065.07zm-.02-.15l-1.078-.014-.118.007c-.074-.012-.005-.1.046-.162l.052-.045s.092.097.243.09l.894.013s.098.007.092.058c0 0-.014.078-.132.052zm.29.28c-.066.012-.14-.01-.158-.09-.02-.085.014-.188.104-.207 0 0 .112.02.112.12 0 .105.006.163-.06.176zm.08-.352s.116-.076.162-.063c0 0 .598.038.782.006.184-.033.072-.006.072-.006s.157 0 .204-.058c0 0 .046-.052.072-.007l.1.142s.005.064-.106.057c0 0-1.07 0-1.104.007 0 0-.204.03-.183-.08zM13 2.77s-.276-.006-.257.07c0 0-.02.182-.033.212 0 0 .027.147-.005.174 0 0-.02.083-.197.07 0 0-1.132-.006-1.308.007 0 0-.106-.012-.08-.103 0 0 .08-.038.13-.025.055.013.823-.006.823-.006s.335.025.388-.02l.08-.026s.032-.04.032-.09c0-.05.008-.223.008-.223l.02-.066s-.008-.062 0-1.78c0 0 .025-.134-.06-.217 0 0 0-.05.025-.044.014.002.017.004.017.004.018-.004.117-.027.135.014 0 0 .053.154.007.244 0 0-.014.186.085.186 0 0 .038.04.118.02 0 0 .17.02.17.072 0 0 0 .115-.118.095l-.157.013s-.105.02-.092.14c.013.123-.006.998-.006.998s0 .102.164.095c0 0 .204-.004.204.052 0 0 .053.13-.092.136z" fill="currentColor"/><path d="M6.893 2.346l.19-.007s.073.012.073-.046c0 0-.053-.058-.065-.09 0 0-.006-.61 0-.68l.027-.084s.08-.04.032-.11c0 0-.047-.02-.094-.014l-.065-.012s-.13.007-.11.058l.06.13v.635s-.02.115-.086.147c0 0-.02.065.04.072zM5.81 1.395s.052.058.052.09l-.008.27.007.372s-.006.083-.06.115c0 0-.04.064 0 .084l.212.02s.065-.04.026-.09l-.06-.096.014-.2s.04-.045.06-.02l.236.36s.105.07.132 0c0 0 .007-.025-.026-.05l-.19-.296.013-.103s.204-.076.184-.263c0 0 .04-.186-.222-.27H5.9s-.11-.02-.124.013c0 0-.014.057.033.065zm.21.013s.13-.033.157.005c.026.04.19.18.026.334 0 0-.072.135-.197.04 0 0 0-.194-.006-.334l.02-.045zM1.832 1.464c.014.026.27.817.27.817.112.104.126-.024.126-.024.08-.13.222-.753.222-.753l.06-.122c-.02-.05-.158-.037-.158-.037-.06.006-.02.07-.02.07l.04.136-.133.455c-.047.11-.086-.04-.086-.04-.138-.392-.15-.493-.15-.493.104-.07.025-.136.025-.136l-.243-.006c-.092.006-.04.078-.04.078l.085.056zM2.87 1.446s.02.012.02.037l-.007.683-.02.05s-.065.083-.02.09c0 0-.058.04.422.045 0 0 .184.033.138-.2 0 0-.02-.082-.085.04 0 0-.02.102-.256.07 0 0-.053-.045-.053-.095v-.283s-.008-.07.103-.064c0 0 .124.078.145.045 0 0 .047-.103 0-.167 0 0-.06-.006-.065.02 0 0-.04.077-.15.03 0 0-.053-.103-.02-.185 0 0-.014-.16.098-.147 0 0 .132.026.146.064 0 0 .032.078.065-.013l-.032-.11s-.02-.044-.052-.032c0 0-.223.033-.25.007l-.178.02s-.026.064.053.096zM9.932 1.438l.098-.09.08-.006c.045.018.032.09.032.09-.015.032-.015.572-.015.572.007.115-.025.162-.025.162-.092.115 0 .115 0 .115.04-.005.203.007.203.007.08.006.047-.083.047-.083-.04-.025-.066-.096-.066-.096l.007-.103c.02-.064 0-.54 0-.54.007-.148.092-.104.092-.104.026.072.08.09.08.09.085-.02.064-.166.064-.166.013-.058-.033-.064-.033-.064l-.113.05h-.31c-.05-.012-.11-.05-.11-.05l-.04.006-.06.154v.05c.046.104.068.008.068.008zM11.686 2.157s-.105-.05-.1-.108c0 0-.033-.072-.072-.06 0 0-.045.014-.025.225 0 0 0 .085.097 0l.053.013s.18.142.33-.032c0 0 .163-.147.046-.327 0 0-.086-.13-.237-.194 0 0-.146-.065-.178-.173 0 0 .045-.195.223-.09 0 0 .066.076.105.09 0 0 .052 0 .04-.116l-.016-.097s-.012-.07-.104 0c0 0-.086.032-.106 0 0 0-.25-.02-.256.244 0 0-.026.18.25.296 0 0 .204.096.19.22 0-.002-.026.217-.242.107zM10.956 1.302l.02-.096v-.014c-.008-.014-.02-.027-.033-.038-.038-.026-.054.022-.068.062l.036.12.046-.034zM10.884 1.92v.066c.015.007.044 0 .06-.005v-.067l-.06.006zM10.62 2.12s-.02.076-.092.09c0 0-.04.045.02.057 0 0 .126.04.164-.012 0 0 .046.025 0-.136 0 0 .033-.193.113-.193 0 0 .045.026.052.05 0 .005.004.008.007.01V1.92l.058-.006.003.07.01-.004s.048-.06.073-.045c0 0 .06.083.065.134 0 0 .027.128-.006.16 0 0-.032.026.046.04 0 0 .15.024.197.005 0 0 .11-.033 0-.07 0 0-.06-.052-.092-.117 0 0-.112-.495-.243-.835 0 0-.003-.03-.02-.06v.014l-.02.096-.047.033-.036-.12c-.003.01-.006.018-.01.024.002 0-.21.835-.24.88zm.322-.548s.072.193.072.225-.006.064-.046.064-.144-.005-.144-.005l-.04-.064.052-.21.073-.045.032.037zM12.57 9.93c-.032.066-.064.133-.098.2l-.012-.027c.017.034.03.068.045.1.012.028.02.056.028.084l.008.027.19-.384h-.16zM13.83 4.728l-.003-.615-.066.037-.032.018c-.01.005-.034.017-.06.027-.024.01-.047.022-.064.032l-.05.027-.006.002c-.044.024-.085.046-.118.066-.05.028-.068.047-.086.06-.056.04-.074.097-.074.143v.008l-.006.062c.004.013.002.023.006.03.003.006.005.018.014.032.01.017.022.048.04.068.043.046.114.107.215.107.044 0 0-.02.267-.042v-.004l-.06-.004-.026-.003c0 .04-.014.39-.014.39 0 .595-.07 1.366-.262 2.244l.07.002.07.002c.19-.878.252-1.65.252-2.25l-.006-.44zm-.136-.094l-.06.02c-.04.016-.07.02-.095.02-.058 0-.092-.023-.12-.05l-.007-.01c.063-.024.122-.05.173-.084.034-.022.065-.048.09-.08l.018-.03v.214zM.31 4.647s-.03-.09-.03-.105c0-.03.008-.065.03-.1l-.006.01v-.308H.33c.053 0 .104.012.147.04.03.02.06.046.082.087l-.067.037.118-.065.066-.036C.646 4.146.6 4.1.55 4.068s-.107-.055-.163-.056H.17v.67c.13-.03.123-.03.14-.035zM3.166 4.26c0 .002 0 .004.003.007v.007c.01.02.012.042.012.062v-.017c.11-.06.224-.116.288-.14.046-.018.1-.03.148-.03s.096.012.134.035c.025.016.05.037.068.068l.055-.028s.002 0 .003-.002l.06-.032c-.03-.052-.07-.092-.117-.12-.06-.038-.133-.053-.202-.053-.07 0-.137.015-.197.04-.07.026-.174.078-.28.133l.026.073zM3.97 4.25l.01.02v.002c.007.022.01.043.01.063v-.023c.105-.057.214-.11.276-.134.047-.018.1-.03.15-.03.08.002.15.025.198.1l-.038.02.04-.022.057-.03c.003 0 .006-.003.008-.004l.054-.028c-.076-.122-.204-.172-.318-.17-.07 0-.138.016-.198.04-.072.027-.175.078-.28.134l.03.06zM4.766 4.246c.004.007.007.017.01.027.005.013.007.025.01.037.103-.056.207-.108.27-.13.045-.02.1-.03.148-.03.052 0 .1.01.14.037.026.018.052.043.072.08-.04.02-.077.04-.108.06-.02.01-.035.02-.048.027l.048-.028c.044-.026.1-.057.162-.09l.022-.013.035-.02.006-.002c-.03-.055-.07-.098-.118-.128-.065-.04-.14-.058-.21-.058-.07 0-.14.016-.2.04-.068.026-.168.075-.27.128l.03.064zM5.13 4.52c-.157.05-.33.09-.445.135-.04.016-.07.02-.094.02-.057 0-.09-.023-.117-.05 0-.002-.002-.004-.003-.005h.005c-.027.01-.056.02-.085.028l-.054.016c.01.015.022.032.04.05.04.046.113.096.214.096.045 0 .093-.01.145-.03.093-.037.26-.075.418-.124 0 0-.016-.123-.024-.135zM5.568 4.285c.005.017.007.034.007.05 0 .035-.01.068-.027.096.016-.027.028-.06.027-.094V4.33c.117-.062.242-.124.312-.15.047-.02.1-.03.15-.03.05 0 .096.01.135.035.025.017.05.04.07.072-.013.006-.024.013-.036.02l.06-.033.032-.017.054-.03.008-.003c-.03-.054-.072-.096-.118-.124-.063-.04-.136-.055-.205-.055-.07 0-.14.015-.2.04-.066.025-.167.074-.27.127v.103z" fill="currentColor"/><path d="M5.22 4.633l.078-.03.03-.012c.004 0 .007-.002.01-.003.014-.006.026-.01.04-.018 0 0 0-.002.003-.003.012-.005.022-.01.033-.017.003 0 .006-.003.008-.004l.034-.02c.033-.023.062-.048.084-.08.004-.004.008-.01.01-.015.016-.027.028-.06.028-.094 0-.017-.003-.034-.007-.05V4.18l-.037.02-.006.003-.034.018-.023.013c-.062.033-.117.064-.162.09-.02.01-.034.02-.047.028-.02.012-.034.02-.045.03-.007.004-.015.01-.02.016-.003 0-.005.003-.006.005-.006.004-.01.01-.013.013l-.006.006c-.003.004-.006.01-.01.013l-.004.007-.008.014-.003.006-.006.015-.003.004-.006.02c0 .005 0 .01-.002.017v.022c0 .016 0 .03.004.042l.017.07v.002l.012-.004.057-.02zM6.394 4.263l.004.013c.007.02.01.04.01.06V4.32c.11-.06.224-.116.288-.14.047-.02.1-.03.15-.03s.098.01.137.035c.028.02.055.044.075.084l-.065.036c.022-.012.046-.025.07-.04l.047-.026h.002l.064-.037c-.03-.057-.073-.1-.12-.13-.065-.043-.14-.06-.21-.06-.07 0-.138.016-.2.04-.068.028-.17.08-.275.134l.024.076z" fill="currentColor"/><path d="M5.944 4.597c-.005-.015-.007-.033-.007-.055V4.53c-.03.008-.318.083-.42.125-.038.015-.07.02-.095.02-.057 0-.09-.024-.117-.052l-.014-.016c.004 0 .006-.002.008-.003l-.08.03-.058.018c.01.017.024.04.046.062.042.046.115.095.215.095h.002c.044 0 .093-.01.143-.03.09-.036.248-.073.398-.118l-.02-.065zM6.398 4.276l-.004-.013-.024-.076-.01.005-.008.004-.054.03-.03.016c-.022.01-.042.023-.062.033L6.2 4.28c-.01.004-.02.01-.03.016l-.016.01c-.004 0-.008.003-.01.005l-.02.012c-.042.024-.07.042-.09.054-.004.002-.008.004-.01.007-.008.005-.015.01-.022.017-.002 0-.002.003-.004.004l-.015.015c-.002 0-.003.003-.004.004-.006.005-.01.01-.012.015l-.004.005-.008.014-.003.006-.006.013-.003.006c0 .005-.003.01-.004.014 0 .002 0 .004-.002.006v.014c-.002 0-.002.003-.002.005v.016c0 .02.003.04.007.054l.02.065v.002l.01-.003.054-.02.084-.03c.012-.003.022-.008.033-.012.004 0 .008-.002.01-.004.015-.005.028-.01.04-.018l.007-.002.032-.017c.003 0 .006-.003.01-.005l.034-.02c.036-.023.066-.05.09-.08.01-.015.02-.03.027-.047.008-.02.014-.045.014-.07 0-.02-.002-.04-.01-.06zM7.208 4.278c.006.02.01.038.01.058 0 .04-.016.08-.037.11l-.024.03c.01-.01.018-.02.025-.03.022-.03.038-.07.038-.11.12-.064.25-.13.32-.157.046-.02.1-.03.148-.03.082.002.15.024.2.098l-.036.02c.03-.017.062-.034.095-.05v-.002l.048-.025.013-.005c-.077-.122-.204-.17-.32-.17-.068 0-.137.016-.196.04-.077.03-.193.088-.306.147l.024.076zM6.78 4.58c-.002-.012-.003-.024-.003-.038V4.52c-.028.006-.34.09-.453.135-.037.015-.068.02-.093.02-.056 0-.09-.024-.117-.052l-.008-.01c.002 0 .005 0 .007-.002l-.084.03-.055.02c.01.015.023.034.042.055.036.04.094.08.172.092l.042.003c.044 0 .092-.01.144-.03.095-.038.264-.077.423-.127L6.78 4.58z" fill="currentColor"/><path d="M7.208 4.278L7.184 4.2l-.008.004-.065.035c-.016.01-.032.018-.047.026-.024.014-.05.027-.07.04-.003 0-.005.003-.007.004l-.03.018c-.04.022-.065.038-.084.05l-.008.006-.02.016-.008.008-.01.01-.006.01c-.003.002-.006.005-.008.01l-.005.007-.006.01c0 .004-.002.006-.004.01l-.006.013-.002.005c-.003.007-.005.013-.006.02 0 0 0 .003-.002.005v.01c-.003.01-.003.017-.003.024 0 .014.002.026.004.037l.018.072.012-.002.06-.02.075-.03.03-.012c.004 0 .007-.002.01-.004.013-.005.025-.01.038-.017l.004-.002c.01-.005.02-.01.03-.017.004 0 .006-.003.01-.005l.03-.02H7.1l.005-.005c.02-.013.036-.028.05-.043.01-.01.02-.02.025-.03.022-.03.037-.068.037-.11 0-.02-.003-.038-.01-.057zM8.037 4.246l.01.024.002.002c.006.02.01.042.01.062 0-.01 0-.02-.003-.028.103-.053.21-.105.268-.127.047-.02.1-.03.15-.03.05 0 .098.01.138.036.027.018.052.043.072.08-.01.006-.02.01-.03.017l.085-.046.015-.008.05-.027c-.032-.057-.073-.1-.118-.13-.065-.042-.14-.058-.21-.058s-.14.015-.2.04c-.068.025-.168.074-.27.128l.03.063z" fill="currentColor"/><path d="M7.576 4.605c-.006-.015-.01-.036-.01-.063v-.006c-.033.01-.303.08-.4.12-.037.014-.068.02-.095.02-.055 0-.09-.025-.116-.053l-.016-.02c.002 0 .004 0 .006-.002l-.076.03-.06.02c.01.018.026.04.05.064.04.046.113.096.212.096.046 0 .094-.01.146-.03.086-.034.235-.07.382-.114l-.022-.06zM8.05 4.273h-.002V4.27l-.01-.023-.03-.063h-.003l-.013.006-.047.025-.095.052-.013.007c-.012.006-.022.012-.03.018-.004 0-.007.003-.01.005l-.037.02-.08.047-.027.018c-.024.018-.042.037-.056.058v.002c-.005.007-.01.013-.012.02l-.002.004-.007.015c0 .003 0 .006-.002.008L7.57 4.5l-.002.01-.002.01v.016l-.002.006c0 .026.006.047.012.062l.02.06H7.6l.007-.002.054-.018.084-.03c.013 0 .026-.006.038-.01l.01-.005.042-.02c.002 0 .005 0 .006-.002.012-.005.023-.01.034-.017.004 0 .007-.002.01-.004l.037-.02c.033-.02.062-.043.085-.07l.012-.012.008-.013c.02-.03.033-.065.033-.103 0-.022-.002-.043-.01-.064zM8.77 4.228h.012c.006.002.013 0 .03.014.008.004.02.017.024.03.007.022.01.042.01.063V4.33c.118-.062.243-.125.312-.152.048-.018.1-.03.15-.03.05 0 .097.012.135.036.026.017.05.04.07.072l.057-.03.062-.033c-.032-.054-.073-.095-.118-.123-.065-.04-.137-.056-.206-.056-.07 0-.138.015-.198.04-.077.03-.193.087-.306.147l-.05.027h.017zM10.376 4.22h-.003.003l.07-.038.025.075s.004.005.007.015c.006.015.008.03.01.043v-.002c.106-.057.215-.11.276-.134.048-.02.1-.03.15-.03.08 0 .15.024.2.097l.04-.022.018-.01.06-.03c-.074-.122-.2-.172-.316-.17-.07 0-.14.015-.198.04-.07.026-.174.078-.278.133-.02.01-.042.02-.062.032zM.573 4.81c.046 0 .093-.01.145-.03.086-.034.234-.07.382-.114l-.02-.06c-.008-.015-.013-.037-.013-.064v-.006c-.02.005-.3.08-.4.12-.036.014-.067.02-.093.02-.057 0-.09-.025-.117-.053l-.016-.02c-.02.01-.13.047-.13.047.01.018.027.04.05.064.04.046.114.095.213.095zM1.188 4.015c-.07 0-.138.015-.198.04-.075.028-.2.09-.313.152l.04.13c.116-.06.254-.13.322-.158.046-.02.1-.03.148-.03.082.002.15.025.2.098l-.04.022.16-.085c-.077-.122-.204-.173-.32-.17zM2.717 4.596c-.005-.014-.008-.032-.008-.054V4.53v-.002c-.04.012-.32.087-.42.127-.04.015-.07.02-.096.02-.056 0-.09-.024-.117-.052-.005-.006-.01-.01-.014-.017h.003l-.075.026-.057.02c.01.017.024.04.045.062.042.045.115.095.215.095.046 0 .094-.01.145-.03.09-.036.247-.073.398-.118l-.02-.066zM4.305 4.605c-.006-.014-.01-.036-.01-.063v-.006c-.04.01-.302.08-.4.118-.036.015-.067.02-.093.02-.057 0-.09-.024-.117-.052 0-.002-.003-.004-.005-.006l-.078.027-.058.02c.01.016.025.036.043.054.04.046.11.093.21.093h.007c.044 0 .09-.01.143-.03.085-.035.234-.07.38-.114l-.022-.06zM3.515 4.6c-.005-.014-.01-.033-.01-.057v-.008c-.05.013-.31.083-.406.12-.04.015-.07.02-.096.02-.057 0-.09-.024-.117-.052l-.008-.01s.003 0 .005-.002l-.083.03-.056.018c.01.016.023.036.042.056.042.046.114.095.215.095.045 0 .094-.01.145-.03.088-.035.24-.07.387-.116l-.02-.063zM.677 4.207H.672l-.06.035-.12.065-.005.004-.028.017c-.002 0-.003 0-.004.002-.043.023-.072.04-.09.052l-.02.02H.343c-.006.005-.012.01-.017.017l-.003.002c-.005.006-.01.012-.012.017 0 0 0 .002-.003.004-.023.034-.034.064-.034.098 0 .024.032.107.032.107.002 0 .11-.04.133-.046h.005l.035-.015.007-.004.038-.018h.003L.56 4.55l.01-.005.03-.02c.008-.005.016-.01.022-.016.038-.03.07-.067.086-.112.006-.018.01-.038.01-.058v-.002l-.04-.13z" fill="currentColor"/><path d="M1.55 4.275c-.005-.015-.01-.022-.01-.024l-.026-.07-.007.004-.06.032-.012.006c-.03.016-.06.03-.086.047-.003 0-.005 0-.007.002l-.034.02c-.005 0-.01.004-.013.005l-.03.018-.006.003-.03.018c-.036.02-.06.036-.075.046-.01.006-.015.012-.022.018l-.002.002-.016.017-.003.003-.01.016c-.002 0-.003.003-.004.005l-.01.015c0 .002 0 .004-.002.006l-.006.014-.002.008-.005.012v.008l-.002.012V4.54c0 .028.004.05.01.063l.02.06h.01l.054-.02c.028-.007.057-.017.085-.026l.037-.014.01-.005.042-.018c.002 0 .004 0 .006-.002.012-.005.023-.01.034-.017.004 0 .007-.002.01-.004l.037-.02c.037-.024.07-.05.096-.082.014-.02.025-.04.033-.065.005-.018.008-.036.008-.054v-.028c-.003-.01-.005-.022-.01-.033zM2.066 4.605l.038-.015.006-.003.04-.018v-.002l.037-.018c0-.002.003-.003.005-.004l.034-.02c.034-.023.063-.048.086-.08.02-.027.034-.06.037-.098v-.012c0-.017-.004-.034-.008-.05l-.022-.057-.013-.03-.003.002-.062.034-.01.006c-.008.004-.017.008-.024.013l-.092.05-.036.022-.042.024-.043.028h-.003l-.005.005-.02.017-.006.006-.012.012-.006.008-.008.012-.005.007c-.004.004-.007.01-.008.013l-.005.007-.005.013-.003.007c-.004.006-.005.012-.007.017v.005l-.003.015-.002.02c0 .017.002.03.005.043l.017.07v.002l.013-.005.058-.02c.027-.008.052-.018.076-.027zM3.17 4.27V4.27l-.004-.007-.026-.072-.007.004-.005.003-.04.022-.017.01c-.025.012-.05.026-.074.04l-.034.017-.017.01-.018.01-.03.018-.062.036c-.017.01-.03.018-.038.025l-.006.005-.015.012-.007.008-.01.01-.007.01-.008.01-.006.01-.006.01c0 .004-.002.006-.004.01l-.005.01c0 .004 0 .007-.002.01 0 .004-.003.008-.004.012l-.002.008-.002.012v.01l-.002.014c0 .02.004.04.008.053l.02.065.01-.002.056-.02c.028-.008.057-.018.083-.028.012-.004.022-.01.034-.013l.01-.005.04-.018s.003 0 .004-.002c.012-.006.023-.01.034-.018.004 0 .006-.003.01-.004.01-.008.022-.014.033-.022.036-.022.067-.047.092-.08l.02-.03c.013-.026.02-.054.02-.084 0-.02-.003-.042-.01-.062V4.27zM3.99 4.336c0-.02-.003-.042-.01-.062v-.002l-.01-.023-.032-.062-.06.032c-.002 0-.002 0-.003.002l-.056.03c-.013.006-.024.013-.036.02-.004 0-.008.003-.012.005-.01.005-.02.01-.028.016l-.012.007c-.01.006-.02.01-.027.016-.003 0-.006.002-.008.004-.045.026-.078.046-.096.06 0 0-.004 0-.005.003-.017.012-.03.024-.04.037-.002 0-.003.002-.003.003l-.014.017c0 .002-.002.004-.003.005l-.01.015c0 .003 0 .005-.002.007l-.005.014-.003.01c0 .003-.003.007-.004.01v.008l-.002.012v.008c-.002.002-.002.004-.002.005v.01c0 .023.005.043.01.057l.016.065h.003l.01-.003.055-.018.085-.03.035-.014c.003 0 .007-.002.01-.004.015-.005.028-.012.04-.018.003 0 .005 0 .006-.002l.035-.017.01-.006.037-.02c.025-.017.048-.034.07-.055 0-.002 0-.003.002-.005 0 0 0-.002.002-.002l.018-.02c0-.003.004-.007.005-.01.015-.02.024-.042.03-.066l.005-.025V4.35v-.014zM4.786 4.31c-.002-.012-.005-.024-.01-.035-.003-.013-.006-.022-.01-.03l-.03-.062h-.003l-.05.028-.01.006-.056.03-.04.023H4.57c-.01.008-.023.016-.036.022l-.008.005c-.013.008-.026.015-.04.02-.025.017-.048.03-.065.04l-.038.026c-.01.005-.016.012-.022.018l-.003.002-.016.017s0 .003-.002.004c-.004.005-.01.01-.012.016l-.004.006-.01.014v.008l-.007.012c-.002.003-.002.006-.003.01 0 .003-.003.007-.004.01 0 .003 0 .006-.002.01 0 .003 0 .006-.002.01V4.54c0 .028.005.05.01.064l.022.06.008-.002.054-.018.085-.03.038-.014h.01l.043-.02.004-.002c.012-.005.023-.01.035-.017.004 0 .006-.002.01-.004l.037-.02c.036-.024.068-.05.094-.082.026-.032.043-.074.043-.118V4.31zM8.848 4.335c0-.02-.004-.042-.01-.062-.007-.014-.018-.027-.026-.032-.017-.01-.024-.01-.03-.01l-.01-.002h-.016l-.016.008c-.03.015-.057.032-.084.046l-.013.008-.02.01-.017.01-.017.01-.012.006-.038.023c-.024.013-.042.024-.054.032-.008.006-.015.012-.02.018-.003 0-.004.002-.006.004l-.014.014c0 .002-.004.004-.005.006l-.01.014s0 .004-.003.006l-.008.013-.004.007-.007.014c0 .002-.002.003-.003.005-.004.014-.008.026-.01.038v.02c0 .017.002.03.005.043l.018.07v.002l.01-.004.06-.02c.026-.008.052-.018.076-.027.012-.003.023-.008.035-.013.004 0 .007-.002.01-.003.013-.005.025-.012.038-.018l.003-.002.034-.018c.003 0 .006-.002.008-.004l.034-.02c.03-.022.057-.045.08-.073l.004-.007.006-.01c.02-.028.03-.063.032-.1zM10.487 4.315c-.002-.014-.005-.028-.01-.042l-.006-.016-.024-.075-.07.038-.072.04c-.003 0-.006.002-.01.004l-.013.007c0 .002-.002.003-.005.004l-.035.02c-.003 0-.006.003-.008.004l-.036.02-.03.018c-.002 0-.004.002-.006.004l-.052.03c-.006.005-.012.01-.017.012l-.002.002-.02.016-.006.007-.01.012c-.004.002-.006.004-.008.007-.003.004-.006.007-.008.012-.003 0-.004.004-.006.008l-.007.01c-.002.004-.004.007-.004.01l-.007.01c0 .004-.002.007-.003.01.002.005 0 .008 0 .012-.002.003-.002.006-.003.01 0 .003 0 .006-.002.01v.014c0 .003-.002.006 0 .01 0 .023.003.042.008.057l.02.063h.002l.01-.002.054-.017.083-.03c.012-.003.024-.008.036-.013.003 0 .005-.002.01-.004l.04-.018c.002 0 .003 0 .005-.002.012-.006.023-.01.035-.017l.01-.006.035-.02c.024-.016.046-.033.065-.052l.028-.03c.02-.028.037-.062.04-.1v-.017-.02zM11.286 4.335c0-.008 0-.017-.002-.025-.002-.013-.005-.025-.01-.038V4.27l-.013-.026-.03-.06-.06.032-.017.01-.042.022-.04.022-.04.023c-.003 0-.005.002-.007.003l-.038.022c-.053.03-.088.05-.106.064h-.002c-.023.018-.04.038-.055.058v.002c-.005.006-.01.012-.012.02v.004c-.004.005-.007.01-.008.015 0 .003-.002.006-.003.008l-.005.012c0 .003 0 .006-.002.01v.01c-.002.003-.002.006-.002.01v.011c0 .027.006.05.01.063h.002l.02.06.01-.002.053-.016.084-.028.04-.015s.004 0 .007-.002l.043-.02h.004l.037-.018c.004 0 .006-.003.01-.004l.037-.02c.037-.024.07-.05.095-.082.01-.014.02-.03.028-.046.01-.023.015-.047.016-.073zM.677 4.206l.007-.003c.113-.06.23-.12.307-.15.062-.023.13-.04.2-.04.114 0 .24.05.317.17.102-.054.203-.103.272-.13.06-.024.127-.04.198-.04.07 0 .146.017.21.06.047.03.088.072.12.128l.034-.02c.1-.052.2-.102.27-.128.06-.022.127-.038.198-.038.07 0 .142.016.205.056.047.028.087.07.118.122l.007-.004c.105-.055.21-.107.28-.134.06-.024.13-.04.197-.04.07 0 .14.015.204.054.047.027.086.067.118.12.104-.056.208-.107.28-.135.06-.024.127-.04.197-.04.115 0 .243.05.318.17h.002c.102-.055.2-.104.27-.13.062-.024.13-.04.2-.04s.145.017.21.06c.047.03.088.072.118.128l.035-.02c.102-.05.203-.1.27-.127.06-.023.13-.038.2-.038.068 0 .14.015.204.055.046.028.087.07.117.122l.01-.006c.105-.054.208-.106.277-.132.06-.024.128-.04.198-.04s.145.017.21.06c.048.03.09.073.12.13l.008-.004c.113-.06.23-.117.305-.146.06-.024.128-.04.198-.04.115-.002.242.048.318.17l.002-.002c.1-.053.2-.103.27-.128.06-.024.13-.04.2-.04s.144.017.21.058c.045.03.086.074.117.13.112-.06.23-.12.305-.15.06-.022.128-.037.2-.037.068 0 .14.016.205.056.046.028.086.07.117.122.107-.057.215-.11.287-.14.06-.022.13-.038.198-.038s.14.015.204.054c.045.027.085.067.116.12.104-.056.21-.108.278-.135.06-.024.128-.04.198-.04.115-.002.242.048.317.17.102-.055.202-.105.27-.13.062-.025.13-.04.2-.04s.146.016.21.058c.05.032.09.076.12.13.113-.06.23-.117.306-.146.06-.024.128-.04.198-.04.068 0 .142.016.206.056.045.028.086.07.117.122.107-.057.215-.11.287-.14.06-.022.128-.038.198-.038s.142.016.206.056c.047.03.088.07.12.126h.002l.057-.028.1-.055v-.1H.387c.056.006.11.023.162.055s.094.078.127.138z" fill="currentColor"/><path d="M2.188 4.072c-.064-.042-.14-.058-.21-.058s-.14.015-.2.04c-.067.025-.165.073-.264.126l.028.07.01.024.007.033c.103-.055.207-.107.268-.13.047-.018.1-.03.15-.03.052 0 .1.012.138.038.027.018.053.043.073.08l-.03.015c.016-.008.03-.017.048-.025l.023-.013.012-.006.064-.035c-.03-.054-.072-.098-.118-.128zM3.015 4.07c-.064-.04-.136-.055-.205-.055-.07 0-.14.015-.198.04-.07.025-.208.094-.308.147h.003l.013.027.02.055c.006.017.008.034.008.05V4.332c.117-.06.242-.125.31-.152.048-.018.1-.03.15-.03.05 0 .097.012.136.036.027.016.05.04.07.07l-.017.01.074-.04.018-.008.04-.022.005-.003c-.03-.05-.07-.092-.118-.12zM1.904 4.584C1.9 4.572 1.9 4.56 1.9 4.544V4.52c-.028.008-.336.09-.444.133-.038.015-.068.02-.094.02-.057 0-.09-.024-.118-.052L1.24 4.62c.003 0 .005-.002.007-.003l-.086.03-.053.016c.01.015.022.032.04.05.04.046.113.095.214.095h.002c.044 0 .092-.01.144-.03.093-.037.258-.073.416-.122l-.018-.072zM8.402 4.583c-.003-.012-.005-.025-.005-.04v-.02c-.032.008-.335.09-.443.132-.037.015-.068.02-.094.02-.057 0-.09-.024-.118-.052L7.74 4.62l.004-.002-.084.03-.055.016c.01.015.022.032.04.05.042.046.115.095.214.095.045 0 .093-.01.145-.03.093-.038.258-.076.415-.125l-.017-.07v-.002zM9.19 4.534c-.145.043-.3.08-.403.12-.038.016-.068.02-.094.02-.057 0-.092-.023-.118-.05-.005-.007-.01-.012-.013-.018.002 0 .003 0 .004-.002-.024.01-.05.02-.075.028l-.058.02c.01.017.024.04.045.062.027.03.066.06.117.078.028.01.062.018.1.018.044 0 .092-.01.144-.03.09-.037.252-.075.406-.123-.01-.016-.016-.028-.018-.034-.002-.005-.007-.015-.01-.028l-.01-.067-.016.006zM9.207 4.532l.007.064.012.028c.003.006.008.02.018.034.01.017.022.036.042.056.042.046.115.095.215.095h.002c.045 0 .093-.01.144-.03.088-.035.24-.072.388-.117l-.02-.062c-.006-.014-.01-.034-.01-.058v-.01c-.03.01-.31.084-.407.123-.038.015-.07.02-.095.02-.057 0-.092-.024-.117-.052l-.01-.01c.065-.024.124-.05.175-.083.034-.022.065-.047.09-.08.023-.03.04-.07.04-.114v-.018c.11-.06.223-.115.287-.14.046-.018.1-.03.15-.03.048 0 .094.012.133.035.025.016.05.037.068.068l-.023.014c.003 0 .006-.003.01-.005.02-.013.044-.025.068-.038l.003-.002c.02-.01.04-.02.062-.033-.032-.05-.072-.09-.118-.12-.063-.038-.135-.053-.203-.053-.07 0-.138.015-.198.04-.073.027-.18.08-.288.138-.022.01-.042.022-.063.034l-.058.03H9.51l-.115.066c-.05.028-.082.048-.1.06-.06.043-.084.1-.088.147v.002zM10.803 4.605c-.006-.015-.01-.036-.01-.062v-.006c-.024.006-.3.08-.4.12-.037.014-.067.02-.093.02-.057 0-.092-.025-.117-.053l-.006-.005c0-.002.003-.002.006-.003l-.084.03-.056.017c.01.015.022.033.04.052.04.046.114.095.215.095.044 0 .092-.008.143-.028.087-.035.235-.07.382-.114l-.022-.063zM11.626 4.573V4.52c-.154.048-.332.09-.444.134-.038.015-.068.02-.094.02-.057 0-.092-.024-.118-.052l-.003-.003.004-.002c-.026.01-.055.02-.083.028l-.054.017c.01.015.02.033.04.05.04.046.114.096.214.096h.002c.043 0 .09-.01.142-.03.095-.04.267-.08.427-.128-.01-.013-.013-.023-.016-.028-.004-.008-.013-.03-.018-.05zM12.032 4.2c-.03-.055-.072-.098-.12-.128-.063-.042-.14-.058-.21-.058s-.138.015-.198.04c-.07.025-.17.075-.272.13l.03.058.013.026v.002c.006.013.008.025.01.038v-.002c.104-.055.208-.106.268-.13.048-.018.1-.03.15-.03s.1.012.14.038c.024.017.053.046.072.08l.044-.023.072-.04z" fill="currentColor"/><path d="M12.44 4.594l-.005-.066c-.147.044-.315.085-.422.127-.038.015-.07.02-.094.02-.058 0-.092-.024-.118-.052-.006-.005-.01-.01-.014-.016.06-.023.116-.05.163-.082.034-.022.063-.047.085-.078.022-.03.038-.07.038-.11V4.33c.117-.062.242-.125.31-.15.048-.02.1-.03.15-.03.05 0 .097.013.135.034.036.02.066.066.07.072l.01-.006.048-.025.062-.033h.002c-.03-.048-.077-.096-.12-.122-.063-.04-.137-.056-.206-.055-.07 0-.138.015-.197.04-.077.028-.193.087-.306.146-.02.013-.053.03-.072.04l-.044.024h-.002l-.107.06c-.045.027-.074.045-.092.058-.052.037-.078.086-.086.13v.06c.004.02.013.043.017.05.002.005.007.016.015.028.01.018.023.04.045.062.042.046.114.095.215.095.045 0 .093-.01.145-.03.092-.036.253-.074.407-.12l-.02-.037c-.003-.004-.008-.013-.01-.026z" fill="currentColor"/><path d="M13.55 4.256c-.02-.033-.045-.056-.07-.072-.04-.024-.086-.035-.136-.035s-.104.01-.15.028c-.064.025-.18.082-.288.14v.018c0 .043-.016.083-.04.114-.023.032-.055.058-.09.08-.05.032-.11.06-.173.083l.008.01c.027.027.063.05.12.05.024 0 .055-.004.093-.02.108-.042.27-.08.422-.125v.01l.007.056c.004.013.008.023.012.03l.018.032c-.155.047-.317.085-.41.123-.05.02-.098.028-.142.028h-.002c-.1 0-.173-.05-.215-.095-.02-.02-.032-.04-.043-.056l-.02-.036c0-.005-.005-.014-.01-.028l-.005-.065V4.52c.006-.045.032-.1.087-.138.02-.013.05-.033.1-.06.034-.02.074-.043.118-.066l.01-.006.048-.025.062-.033h.002c.106-.057.214-.11.285-.138.06-.024.128-.04.198-.04s.142.016.206.057c.048.03.09.072.12.127-.023.01-.046.02-.063.03l-.05.027-.008.002z"
    fill="currentColor"/>
  </symbol>
  <symbol id="harvard-vcg" viewBox="0 0 16 16">
    <path
      d="M15.993 8.005C16.008 12.32 12.533 15.998 8 16 3.516 16-.01 12.367.007 7.968.022 3.568 3.6-.052 8.1 0c4.436.052 7.916 3.685 7.893 8.005zM7.99 15.442c4.05.037 7.376-3.253 7.458-7.268.088-4.194-3.246-7.63-7.443-7.63C3.872.55.565 3.853.555 7.99c-.012 4.168 3.388 7.48 7.434 7.452z"
      fill="currentColor"/>
    <path
      d="M12.646 7.565c-.336.056-.673.107-1.01.167-1.04.186-2.063.432-3.076.73-.05.017-.11.05-.15.012-.054-.052.007-.108.028-.157.573-1.48 1.05-2.993 1.42-4.535.155-.646.294-1.295.402-1.952.024-.146.08-.157.195-.11.665.268 1.28.618 1.832 1.077.97.812 1.675 1.81 2.087 3.007.352 1.022.443 2.07.297 3.14-.186 1.356-.76 2.533-1.652 3.564-.117.136-.23.2-.43.188-1.655-.09-3.23-.498-4.74-1.17-.197-.086-.39-.185-.586-.273-.09-.042-.104-.093-.06-.18.37-.728.705-1.47 1.015-2.227.033-.08.096-.11.17-.137 1.358-.507 2.744-.905 4.187-1.09.027-.003.052-.016.08-.023l-.008-.032zM8.082 1.256c.124-.017.307.044.494.04.1 0 .126.055.116.15-.09.838-.205 1.675-.348 2.507-.266 1.555-.607 3.098-.967 4.635-.047.2-.14.3-.333.365-.667.232-1.326.482-1.973.764-.1.046-.18.038-.27-.034-1.184-.965-2.153-2.11-2.92-3.43-.266-.453-.28-.458-.048-.955C2.756 3.303 4.28 2.016 6.41 1.46c.526-.138 1.066-.182 1.672-.204zM11.368 13.83c-.435.27-.896.46-1.375.608-.684.215-1.386.32-2.1.306-.8-.017-1.575-.165-2.322-.456-.128-.05-.153-.1-.072-.226.433-.67.848-1.353 1.22-2.062.052-.1.097-.14.21-.067 1.338.845 2.78 1.443 4.315 1.82.04.013.082.017.125.076zM4.807 10.37c.07.002.105.043.143.078.405.37.835.71 1.284 1.022.085.062.112.11.065.215-.35.772-.745 1.516-1.18 2.24-.06.104-.123.116-.227.06-.938-.505-1.73-1.177-2.356-2.042-.084-.115-.07-.173.044-.248.696-.447 1.402-.877 2.126-1.28.035-.02.073-.033.1-.045zM1.268 8.063c-.005-.68.082-1.283.248-1.875.016-.058.012-.15.085-.157.062-.004.074.083.098.133C2.363 7.54 3.243 8.766 4.32 9.85c.098.096.103.15-.03.21-.72.32-1.424.672-2.115 1.048-.103.056-.147.008-.19-.074-.29-.576-.498-1.182-.61-1.817-.07-.403-.12-.807-.107-1.154zM7.13 9.228c.09.015.05.077.037.118-.057.196-.114.39-.18.584-.093.27-.196.535-.29.804-.05.148-.112.17-.25.083-.33-.207-.666-.407-.982-.637-.074-.054-.122-.104-.007-.16.53-.268 1.057-.538 1.604-.77l.067-.022z"
      fill="currentColor"/>
  </symbol>
  <symbol id="location" viewBox="0 0 16 16">
    <path
      d="M12.283,2.831c-0.232-0.552-0.566-1.048-0.992-1.473c-0.426-0.426-0.922-0.76-1.475-0.994C9.246,0.123,8.638,0,8.013,0
      C7.387,0,6.78,0.123,6.208,0.364C5.657,0.598,5.161,0.932,4.735,1.358C4.31,1.783,3.975,2.279,3.742,2.831
      C3.5,3.403,3.377,4.01,3.377,4.636c0,1.05,0.743,2.744,2.209,5.032c1.075,1.679,2.165,3.083,2.176,3.097l0.25,0.321l0.25-0.321
      c0.011-0.014,1.1-1.418,2.176-3.097c1.465-2.289,2.209-3.982,2.209-5.032C12.648,4.01,12.525,3.403,12.283,2.831z M8.013,6.226
      c-0.993,0-1.797-0.805-1.797-1.797c0-0.992,0.805-1.797,1.797-1.797s1.795,0.805,1.795,1.797C9.809,5.421,9.006,6.226,8.013,6.226z"
      fill="currentColor"/>
    <path
      d="M15.07,11.442c-0.402-0.371-0.973-0.701-1.693-0.98c-0.594-0.231-1.268-0.42-1.998-0.562
      c-0.111,0.185-0.229,0.373-0.35,0.564c0.781,0.139,1.5,0.331,2.125,0.573c1.26,0.49,1.982,1.131,1.982,1.759
      s-0.723,1.269-1.982,1.759C11.781,15.089,9.951,15.382,8,15.382s-3.782-0.293-5.153-0.826c-1.261-0.49-1.984-1.131-1.984-1.759
      s0.723-1.269,1.984-1.759c0.666-0.259,1.439-0.461,2.283-0.601c-0.122-0.193-0.238-0.382-0.35-0.566
      c-0.791,0.144-1.52,0.343-2.157,0.59c-0.72,0.28-1.29,0.61-1.693,0.98c-0.455,0.419-0.686,0.874-0.686,1.355
      c0,0.48,0.23,0.937,0.686,1.354c0.403,0.371,0.973,0.701,1.693,0.98C4.063,15.691,5.973,16,8,16c2.026,0,3.936-0.309,5.379-0.869
      c0.719-0.279,1.289-0.609,1.691-0.98c0.455-0.417,0.686-0.873,0.686-1.354C15.756,12.315,15.525,11.86,15.07,11.442z"
      fill="currentColor"/>
  </symbol>
</svg>
