<svg xmlns="http://www.w3.org/2000/svg">
  <symbol id="bookmark" viewBox="0 0 16 16">
    <path
      d="M13.315 16H2.685c-.657 0-1.185-.532-1.185-1.19V1.19C1.5.532 2.028 0 2.685 0h10.63c.657 0 1.185.532 1.185 1.19v13.62c0 .658-.528 1.19-1.185 1.19zm0-15.407L12 .606V6l-2-1-2 1V.593H2.686c-.322 0-.592.264-.592.59v13.634c0 .326.27.59.592.59h10.628c.322 0 .592-.264.592-.59V1.183c0-.326-.27-.59-.592-.59z"
      fill="currentColor"/>
  </symbol>
  <symbol id="calendar" viewBox="0 0 16 16">
    <path
      d="M14.857,16H1.143C0.512,16,0,15.487,0,14.857v-12c0-0.631,0.512-1.143,1.143-1.143h1.143v0.571C2.286,3.233,3.053,4,4,4 s1.714-0.767,1.714-1.714V1.714h4.572v0.571C10.286,3.233,11.054,4,12,4s1.714-0.767,1.714-1.714V1.714h1.144 c0.63,0,1.143,0.512,1.143,1.143v12C16,15.487,15.487,16,14.857,16z M14.857,5.714H1.143v9.143h13.714V5.714z M11.982,3.429 c-0.622,0-1.125-0.503-1.125-1.125V1.125C10.857,0.503,11.36,0,11.982,0c0.621,0,1.125,0.503,1.125,1.125v1.179 C13.107,2.925,12.604,3.429,11.982,3.429z M3.982,3.429c-0.622,0-1.125-0.503-1.125-1.125V1.125C2.857,0.503,3.36,0,3.982,0 c0.622,0,1.125,0.503,1.125,1.125v1.179C5.107,2.925,4.604,3.429,3.982,3.429z"
      fill="currentColor"/>
  </symbol>
  <symbol id="text" viewBox="0 0 16 16">
    <rect y="3.691" width="8.615" height="1.231" fill="currentColor"/>
    <rect width="8.615" height="1.23" fill="currentColor"/>
    <rect y="7.384" width="16" height="1.231" fill="currentColor"/>
    <rect y="11.075" width="16" height="1.233" fill="currentColor"/>
    <rect y="14.769" width="16" height="1.231" fill="currentColor"/>
  </symbol>
  <symbol id="video" viewBox="0 0 16 16">
    <path
      d="M15.838,4.799L15.836,4.8c0,0-0.154-1.103-0.637-1.587c-0.607-0.637-1.291-0.641-1.602-0.678C11.359,2.372,8,2.372,8,2.372 H7.994c0,0-3.359,0-5.597,0.163C2.083,2.573,1.403,2.576,0.793,3.213C0.312,3.697,0.16,4.8,0.16,4.8S0,6.094,0,7.391v1.212 c0,1.295,0.159,2.592,0.159,2.592s0.156,1.103,0.634,1.588c0.609,0.637,1.409,0.615,1.766,0.684C3.841,13.589,8,13.626,8,13.626 s3.363-0.006,5.601-0.166c0.312-0.037,0.994-0.041,1.602-0.678c0.482-0.484,0.639-1.589,0.639-1.589S16,9.9,16,8.604V7.39 C15.996,6.096,15.838,4.799,15.838,4.799z M15,8.532c0,1.134-0.137,2.265-0.137,2.265s-0.137,0.965-0.561,1.389 c-0.529,0.557-1.128,0.561-1.401,0.594C10.943,12.92,8,12.924,8,12.924s-3.64-0.031-4.761-0.137 c-0.311-0.062-1.012-0.041-1.545-0.598c-0.418-0.428-0.555-1.393-0.555-1.393S1,9.664,1,8.532V7.468 c0-1.135,0.139-2.266,0.139-2.266s0.135-0.966,0.555-1.39C2.227,3.256,2.822,3.252,3.097,3.22c1.959-0.144,4.898-0.144,4.898-0.144 H8c0,0,2.939,0,4.898,0.144c0.273,0.032,0.871,0.036,1.4,0.593c0.421,0.424,0.558,1.39,0.558,1.39V5.201c0,0,0.14,1.135,0.144,2.268 V8.532z"
      fill="currentColor"/>
    <path
      d="M6.343 5.578v4.497l4.32-2.24"
      fill="currentColor"/>
  </symbol>
  <symbol id="twitter" viewBox="0 0 16 16">
    <path
      d="M16 3.54c-.588.262-1.223.437-1.884.515.678-.406 1.196-1.05 1.444-1.816-.635.374-1.338.65-2.083.796-.6-.638-1.453-1.034-2.397-1.034-1.812 0-3.28 1.47-3.28 3.28 0 .256.028.506.084.747C5.156 5.89 2.738 4.585 1.12 2.6.84 3.083.676 3.65.676 4.25c0 1.137.578 2.143 1.458 2.73-.538-.017-1.044-.167-1.487-.41v.04c0 1.592 1.13 2.92 2.633 3.22-.275.074-.566.115-.865.115-.212 0-.416-.02-.62-.06.42 1.303 1.63 2.254 3.066 2.28-1.124.882-2.537 1.407-4.076 1.407-.266 0-.525-.016-.784-.047C1.456 14.46 3.18 15 5.032 15c6.035 0 9.34-5 9.34-9.338 0-.144-.004-.284-.01-.425C15 4.777 15.558 4.2 16 3.54z"
      fill="currentColor"/>
  </symbol>
  <symbol id="new" viewBox="0 0 16 16" fill-rule="evenodd">
    <path
      d="M4.908 14.367c-.252.068-.504.137-.756.215-.71.22-1.24-.266-1.24-.887 0-.62-.045-1.196-.09-1.773 0-.133-.044-.177-.177-.22l-1.728-.666c-.576-.222-.754-.842-.443-1.33.354-.53.664-1.02 1.02-1.55.088-.134.088-.178 0-.31-.356-.49-.71-.976-1.02-1.508C.12 5.762.34 5.186.917 4.964L2.645 4.3c.133-.045.178-.09.178-.222 0-.62.044-1.24.088-1.862.046-.665.533-.975 1.33-.798.4.133.976.266 1.552.443.177.046.266.046.355-.087C6.5 1.33 6.9.843 7.255.4c.22-.267.487-.4.748-.4h.012c.256.004.506.137.702.4.4.486.798.93 1.153 1.417.044.09.133.133.266.09.252-.08.512-.148.774-.216l.224-.057c.262-.068.522-.137.774-.215.62-.177 1.11.222 1.153.842.045.62.045 1.197.09 1.818 0 .133.044.177.177.22.576.178 1.108.4 1.684.622.666.266.887.842.49 1.418-.312.532-.666 1.02-.977 1.507-.088.133-.088.177 0 .31.355.532.665 1.02.976 1.463.353.532.176 1.152-.445 1.374-.216.083-.426.166-.634.25l-.415.165c-.208.083-.418.166-.634.25-.132.044-.176.088-.176.22 0 .622-.045 1.242-.09 1.863-.043.62-.53 1.02-1.15.842-.577-.178-1.198-.31-1.774-.488-.133-.044-.177 0-.266.09-.4.486-.753.93-1.152 1.417-.444.533-1.02.533-1.463 0l-.436-.533-.283-.35c-.14-.175-.284-.35-.433-.534-.09-.09-.133-.133-.266-.09-.25.08-.503.148-.755.216l-.217.057zM8 4c2.208 0 4 1.792 4 4s-1.792 4-4 4-4-1.792-4-4 1.792-4 4-4zm0 1.75c1.242 0 2.25 1.008 2.25 2.25S9.242 10.25 8 10.25 5.75 9.242 5.75 8 6.758 5.75 8 5.75z"
      fill="currentColor"/>
  </symbol>
  <symbol id="people" viewBox="0 0 16 16">
    <path
      d="M10.706,11.939c-0.229-0.051-0.428-0.093-0.523-0.135c-0.729-0.316-1.177-0.799-1.336-1.435 c0.676-0.581,1.243-1.479,1.566-2.482c0.345-0.447,0.532-0.907,0.532-1.301c0-0.262-0.084-0.48-0.252-0.651 c-0.094-2.194-1.659-3.923-3.604-3.951L7.031,1.983c-1.909,0.011-3.482,1.693-3.62,3.851c-0.245,0.181-0.37,0.433-0.37,0.754 c0,0.463,0.262,1.018,0.72,1.526c0.317,0.87,0.809,1.635,1.394,2.17c-0.158,0.641-0.607,1.123-1.337,1.44 c-0.094,0.041-0.283,0.086-0.5,0.139C2.322,12.1,0.471,12.54,0.006,14.271c-0.028,0.104,0.035,0.211,0.139,0.239l13.657,0.007 c0.018,0,0.034-0.002,0.052-0.007c0.105-0.028,0.167-0.135,0.138-0.24C13.533,12.552,11.693,12.152,10.706,11.939z M0.458,14.145 c0.5-1.318,2.021-1.681,2.95-1.902c0.246-0.058,0.44-0.104,0.565-0.158c1.117-0.484,1.48-1.265,1.589-1.833 c0.013-0.068-0.012-0.139-0.064-0.186c-0.582-0.502-1.072-1.255-1.381-2.12C4.109,7.919,4.095,7.896,4.077,7.877 c-0.409-0.444-0.644-0.915-0.644-1.29c0-0.219,0.083-0.366,0.269-0.477c0.057-0.034,0.093-0.095,0.095-0.16 c0.087-1.995,1.508-3.565,3.251-3.576c0.001,0,0.04,0.003,0.042,0.003c1.752,0.024,3.164,1.629,3.214,3.652 c0.002,0.057,0.027,0.108,0.069,0.145c0.124,0.104,0.181,0.235,0.181,0.414c0,0.313-0.167,0.699-0.471,1.085 c-0.015,0.02-0.024,0.04-0.032,0.062c-0.313,0.994-0.876,1.871-1.542,2.408c-0.057,0.045-0.083,0.117-0.07,0.188 c0.109,0.567,0.473,1.348,1.589,1.832c0.132,0.058,0.337,0.103,0.596,0.158c0.919,0.198,2.42,0.524,2.918,1.817 C13.547,14.16,0.451,14.164,0.458,14.145z"
      fill="currentColor"/>
    <path
      d="M12.707,11.439c-0.229-0.051-0.428-0.093-0.523-0.135c-0.729-0.316-1.177-0.799-1.337-1.435 c0.677-0.581,1.243-1.479,1.566-2.482c0.345-0.447,0.532-0.907,0.532-1.301c0-0.262-0.084-0.48-0.252-0.651 C12.6,3.241,11.034,1.513,9.09,1.484L9.032,1.483C8.649,1.485,8.285,1.567,7.94,1.699c0.218,0.055,0.43,0.129,0.631,0.227 c0.155-0.031,0.313-0.051,0.477-0.052c0.002,0,0.04,0.003,0.042,0.003c1.752,0.024,3.164,1.629,3.214,3.652 c0.002,0.057,0.027,0.108,0.069,0.145c0.124,0.104,0.181,0.235,0.181,0.414c0,0.313-0.167,0.699-0.471,1.085 c-0.015,0.02-0.024,0.04-0.032,0.062c-0.313,0.994-0.876,1.871-1.542,2.408c-0.058,0.045-0.084,0.117-0.07,0.188 c0.108,0.567,0.473,1.348,1.589,1.832c0.132,0.058,0.337,0.103,0.596,0.158c0.919,0.198,2.42,0.524,2.918,1.817 c0.001,0.004-0.528,0.008-1.368,0.01c0.062,0.111,0.107,0.24,0.156,0.366l1.475,0.001c0.018,0,0.034-0.002,0.052-0.007 c0.105-0.028,0.167-0.135,0.138-0.24C15.534,12.052,13.694,11.652,12.707,11.439z"
      fill="currentColor"/>
  </symbol>
  <symbol id="globe" viewBox="0 0 16 16">
    <path
      d="M15.997 8c0-4.34-3.478-7.882-7.79-7.992-.005 0-.01-.005-.01-.005v.005C8.134.008 8.07 0 8.002 0c-4.412 0-8 3.588-8 8 0 4.232 3.31 7.7 7.473 7.974.005.004.013.004.018.007l.003-.006c.17.006.34.026.51.026.17 0 .336-.02.508-.026v.004s.005 0 .005-.004c4.163-.267 7.477-3.742 7.477-7.975zM12.7 7.88c-.018-1.21-.232-2.367-.598-3.413.587-.35 1.128-.78 1.613-1.277 1.07 1.272 1.724 2.91 1.756 4.694H12.7V7.88zm-.52 0H8.26V5.594c1.185-.04 2.346-.348 3.39-.88.324.973.52 2.045.533 3.164zM8.26 5.077V.598c1.387.614 2.522 1.934 3.203 3.63-.98.516-2.075.81-3.202.85zm-.522 0c-1.127-.04-2.22-.334-3.203-.85C5.22 2.535 6.348 1.215 7.736.6V5.08zm0 .52v2.286H3.812c.018-1.12.21-2.192.538-3.16 1.047.528 2.2.832 3.386.874zm-4.44 2.28H.523c.03-1.783.683-3.416 1.755-4.693.486.5 1.028.928 1.613 1.282-.366 1.05-.58 2.203-.598 3.412zM3.3 8.4c.034 1.113.227 2.183.554 3.155-.57.345-1.1.77-1.575 1.258C1.26 11.608.626 10.073.535 8.4H3.3zm.516 0h3.92v2.003c-1.204.038-2.37.35-3.424.898-.29-.897-.46-1.876-.496-2.9zm3.92 2.524v4.545c-.042 0-.084-.004-.127-.01-1.368-.66-2.46-1.98-3.12-3.67.997-.524 2.106-.827 3.246-.866zm.522 0c1.048.045 2.173.38 3.216.935-.662 1.65-1.747 2.954-3.1 3.6-.04 0-.078.007-.122.007v-4.542h.006zm0-.526V8.4h3.922c-.036 1.045-.215 2.05-.52 2.96-1.01-.53-2.17-.914-3.402-.962zM12.695 8.4h2.757c-.088 1.674-.724 3.208-1.74 4.416-.442-.414-.983-.83-1.597-1.195.346-.995.548-2.085.58-3.22zm.675-5.594c-.434.453-.93.84-1.45 1.166-.582-1.4-1.453-2.562-2.516-3.318 1.535.294 2.91 1.063 3.966 2.152zM6.61.653C5.54 1.41 4.665 2.57 4.084 3.973c-.53-.327-1.016-.72-1.456-1.172C3.68 1.718 5.06.95 6.61.654zM2.63 13.198c.426-.443.9-.822 1.413-1.142.538 1.34 1.34 2.467 2.336 3.24-1.457-.322-2.752-1.07-3.75-2.098zm6.983 2.105c.98-.763 1.776-1.867 2.313-3.184.512.31.997.674 1.43 1.084-1 1.03-2.293 1.773-3.743 2.1z"
      fill="currentColor"/>
  </symbol>
  <symbol id="code" viewBox="0 0 16 16">
    <path
      d="M5 11.838l-.437.438c-.058.058-.125.087-.2.087s-.144-.03-.202-.087L.088 8.2C.03 8.144 0 8.076 0 8c0-.076.03-.143.087-.2L4.16 3.723c.06-.058.127-.087.203-.087s.143.03.2.087L5 4.162c.06.058.088.125.088.2s-.03.143-.088.2L1.564 8 5 11.437c.058.058.087.125.087.2 0 .076-.028.143-.087.2zm5.168-9.33l-3.262 11.29c-.023.074-.068.13-.135.17-.066.038-.134.045-.204.02l-.542-.147c-.076-.023-.133-.068-.17-.135-.038-.066-.045-.14-.022-.214l3.26-11.288c.024-.076.07-.132.136-.17.067-.038.135-.046.206-.022l.542.15c.075.022.132.067.17.135.04.066.045.137.022.213zM15.912 8.2l-4.074 4.076c-.058.058-.125.087-.2.087-.076 0-.143-.03-.2-.087L11 11.838c-.06-.058-.088-.125-.088-.2 0-.076.03-.144.088-.2L14.436 8 11 4.563c-.06-.058-.088-.125-.088-.2s.03-.143.088-.2l.437-.44c.06-.057.125-.086.2-.086.076 0 .144.03.2.087L15.913 7.8c.06.057.088.124.088.2 0 .075-.03.143-.088.2z"
      fill="currentColor"/>
  </symbol>
  <symbol id="document" viewBox="0 0 16 16">
    <path
      d="M9.777 0h.297l3.555 4.148V14.82c0 .647-.53 1.18-1.185 1.18h-8.89c-.657 0-1.185-.532-1.185-1.19V1.19C2.37.533 2.902 0 3.558 0h6.22zM9.48.593H3.553c-.326 0-.59.27-.59.59v13.634c0 .326.27.59.592.59h8.888c.328 0 .594-.264.594-.59V4.74h-2.37c-.655 0-1.187-.526-1.187-1.19V.594zm.594.296v2.66c0 .33.268.598.59.598h2.195L10.073.888zM4.148 4.147v.593h4.148V4.15H4.148zm0-1.777v.593h4.148V2.37H4.148zm0 3.556v.593h7.704v-.594H4.148zm0 1.778v.593h7.704v-.593H4.148zm0 1.777v.594h7.704V9.48H4.148zm0 1.78v.592h7.704v-.593H4.148zm0 1.777v.593h7.704v-.593H4.148z"
      fill="currentColor"/>
  </symbol>
  <symbol id="presentation" viewBox="0 0 16 16">
    <path
      d="M16,1.067H8.266V0.267C8.266,0.119,8.147,0,8,0C7.852,0,7.733,0.119,7.733,0.267v0.801H0v11.2 h7.355l-3.278,3.276c-0.104,0.104-0.104,0.273,0,0.378C4.13,15.974,4.198,16,4.266,16c0.068,0,0.137-0.026,0.188-0.078 l3.278-3.278v2.556c0,0.146,0.119,0.267,0.267,0.267c0.147,0,0.266-0.12,0.266-0.267v-2.556l3.279,3.278 C11.596,15.974,11.664,16,11.732,16s0.137-0.026,0.188-0.078c0.104-0.104,0.104-0.273,0-0.378l-3.276-3.276H16V1.067L16,1.067z M0.533,1.6h14.933v10.133H0.533V1.6z"
      fill="currentColor"/>
    <circle cx="2.5" cy="10" r="1" fill="currentColor"/>
    <circle cx="10" cy="7.724" r="1" fill="currentColor"/>
    <circle cx="6" cy="6" r="1" fill="currentColor"/>
    <circle cx="13.5" cy="4" r="1" fill="currentColor"/>
    <polygon points="2.782,10.247 2.218,9.753 5.901,5.543 9.907,7.357 13.224,3.747 13.776,4.253 10.093,8.265 6.099,6.457" fill="currentColor"/>
  </symbol>
  <symbol id="github" viewBox="0 0 16 16">
    <path
      d="M8 .198c-4.418 0-8 3.582-8 8 0 3.534 2.292 6.532 5.47 7.59.4.075.548-.173.548-.384 0-.19-.008-.82-.01-1.49-2.227.484-2.696-.943-2.696-.943-.364-.925-.888-1.17-.888-1.17-.725-.497.055-.485.055-.485.802.056 1.225.824 1.225.824.714 1.22 1.872.867 2.328.663.072-.517.28-.87.508-1.07-1.776-.2-3.644-.888-3.644-3.954 0-.874.313-1.588.824-2.148-.082-.202-.357-1.015.077-2.116 0 0 .672-.216 2.2.82.64-.177 1.323-.267 2.003-.27.68.003 1.365.093 2.004.27 1.527-1.036 2.197-.82 2.197-.82.437 1.102.164 1.916.08 2.116.514.56.823 1.274.823 2.147 0 3.072-1.872 3.748-3.652 3.947.288.248.543.734.543 1.48 0 1.07-.01 1.93-.01 2.195 0 .213.146.462.552.384C13.71 14.726 16 11.73 16 8.196c0-4.418-3.58-8-8-8v.002z"
      fill="currentColor"/>
  </symbol>
  <symbol id="link" viewBox="0 0 16 16">
    <path
      d="M11.636 0c.572 0 1.124.11 1.656.325.53.216 1.008.534 1.43.954.42.42.738.895.954 1.428s.322 1.084.322 1.656c0 .568-.107 1.12-.325 1.656-.218.536-.535 1.012-.952 1.43l-2.18 2.18c-.043.042-.105.1-.19.176-.404.36-.857.633-1.357.82-.5.188-1.012.28-1.538.28-.663 0-1.29-.14-1.88-.424-.444-.208-.846-.492-1.205-.852s-.644-.76-.852-1.205C5.802 8.14 6.145 8 6.546 8c.14 0 .282.02.426.06.247.4.568.72.966.967.466.284.972.427 1.518.427.378 0 .745-.072 1.102-.216.356-.145.674-.356.955-.637l2.182-2.18c.28-.28.492-.6.637-.956.144-.356.216-.724.216-1.103 0-.377-.072-.745-.216-1.1-.145-.357-.356-.676-.637-.956s-.6-.492-.955-.636-.724-.216-1.103-.216-.746.072-1.102.216c-.356.144-.675.356-.955.636l-1.53 1.53c-.485-.132-.987-.198-1.505-.198-.083 0-.2.004-.352.012.076-.083.134-.146.176-.188l2.18-2.182C8.97.862 9.445.545 9.98.326 10.517.108 11.068 0 11.636 0zm-5.09 5.09c.662 0 1.29.143 1.88.427.443.21.845.493 1.205.853.36.36.645.76.854 1.204-.285.284-.628.426-1.03.426-.14 0-.282-.02-.426-.062-.246-.398-.568-.72-.966-.967-.465-.282-.97-.424-1.516-.424-.378 0-.746.072-1.103.215-.356.145-.674.357-.955.637L2.308 9.58c-.28.28-.493.6-.638.954-.144.355-.216.724-.216 1.102 0 .38.072.747.216 1.104.145.355.356.675.637.954.28.28.6.492.955.637.357.145.724.217 1.103.217s.746-.072 1.103-.216c.356-.144.675-.355.955-.636l1.528-1.528c.485.133.987.198 1.506.198.083 0 .2-.003.352-.012-.075.084-.133.146-.175.188L7.45 14.722c-.42.42-.896.738-1.43.955-.532.216-1.083.323-1.655.323-.568 0-1.12-.108-1.655-.327-.536-.218-1.012-.534-1.43-.95-.42-.422-.737-.898-.954-1.43s-.324-1.085-.324-1.657c0-.57.108-1.122.324-1.654s.534-1.01.955-1.43L3.463 6.37c.042-.042.104-.1.188-.176.404-.36.857-.633 1.357-.82.5-.188 1.013-.282 1.54-.283z"
      fill="currentColor"/>
  </symbol>
  <symbol id="location" viewBox="0 0 16 16">
    <path
      d="M12.283,2.831c-0.232-0.552-0.566-1.048-0.992-1.473c-0.426-0.426-0.922-0.76-1.475-0.994C9.246,0.123,8.638,0,8.013,0
      C7.387,0,6.78,0.123,6.208,0.364C5.657,0.598,5.161,0.932,4.735,1.358C4.31,1.783,3.975,2.279,3.742,2.831
      C3.5,3.403,3.377,4.01,3.377,4.636c0,1.05,0.743,2.744,2.209,5.032c1.075,1.679,2.165,3.083,2.176,3.097l0.25,0.321l0.25-0.321
      c0.011-0.014,1.1-1.418,2.176-3.097c1.465-2.289,2.209-3.982,2.209-5.032C12.648,4.01,12.525,3.403,12.283,2.831z M8.013,6.226
      c-0.993,0-1.797-0.805-1.797-1.797c0-0.992,0.805-1.797,1.797-1.797s1.795,0.805,1.795,1.797C9.809,5.421,9.006,6.226,8.013,6.226z"
      fill="currentColor"/>
    <path
      d="M15.07,11.442c-0.402-0.371-0.973-0.701-1.693-0.98c-0.594-0.231-1.268-0.42-1.998-0.562
      c-0.111,0.185-0.229,0.373-0.35,0.564c0.781,0.139,1.5,0.331,2.125,0.573c1.26,0.49,1.982,1.131,1.982,1.759
      s-0.723,1.269-1.982,1.759C11.781,15.089,9.951,15.382,8,15.382s-3.782-0.293-5.153-0.826c-1.261-0.49-1.984-1.131-1.984-1.759
      s0.723-1.269,1.984-1.759c0.666-0.259,1.439-0.461,2.283-0.601c-0.122-0.193-0.238-0.382-0.35-0.566
      c-0.791,0.144-1.52,0.343-2.157,0.59c-0.72,0.28-1.29,0.61-1.693,0.98c-0.455,0.419-0.686,0.874-0.686,1.355
      c0,0.48,0.23,0.937,0.686,1.354c0.403,0.371,0.973,0.701,1.693,0.98C4.063,15.691,5.973,16,8,16c2.026,0,3.936-0.309,5.379-0.869
      c0.719-0.279,1.289-0.609,1.691-0.98c0.455-0.417,0.686-0.873,0.686-1.354C15.756,12.315,15.525,11.86,15.07,11.442z"
      fill="currentColor"/>
  </symbol>
  <symbol id="logo" viewBox="0 0 16 16">
    <path
      d="M13.975 12.333l1.685 1.685c.453.453.453 1.188 0 1.642-.454.453-1.19.453-1.642 0l-1.685-1.685c-.234-.233-.342-.54-.335-.846l-.305-.306c-1.232.986-2.79 1.58-4.492 1.58-3.976 0-7.2-3.226-7.2-7.203C0 3.225 3.224 0 7.2 0c3.978 0 7.203 3.224 7.203 7.2 0 1.702-.593 3.26-1.58 4.493l.306.305c.305-.007.612.1.845.335zM7.2 1.6c-3.092 0-5.6 2.508-5.6 5.6 0 1.644.72 3.108 1.848 4.133.347-.127 1.268-.463 1.535-.523.33-.077.463-.235.58-.516.04-.097.093-.15.146-.187-.02-.212-.115-.38-.244-.56-.153-.213-.56-1.09-.713-2.83C4.6 4.98 5.245 3.21 6.993 3.2h.013c.04 0 .29-.003.38 0h.02-.002c1.744.013 2.388 1.78 2.235 3.514-.155 1.742-.56 2.618-.715 2.832-.128.177-.22.344-.242.553.056.04.113.092.156.194.115.28.248.44.578.516.267.06 1.19.396 1.536.524 1.127-1.025 1.848-2.488 1.848-4.132 0-3.094-2.508-5.602-5.6-5.602z"
      fill="currentColor"/>
  </symbol>
  <symbol id="charite" viewBox="0 0 800 295.5">
    <path
      d="M776.375 59.28l-16.187 22.313 6.78 3.782 20.782-20.907-11.375-5.187zM392.78 91.75l-2.186 4.78L345.47 198.97h12.5l12.374-29.062h43.75l12.094 29.062h12.656L394.874 96.53l-2.093-4.78zm-234.81 2.687c-33.3 0-54.126 24.872-54.126 53.72s20.985 52.874 54.125 52.874c10.758 0 21.503-3.613 30.25-9.937v-13.718c-8.106 8.103-19.146 13.343-30.626 13.343-24.89 0-41.313-20.55-41.313-42.968 0-22.42 16.128-42.97 41.064-42.97 11.75 0 22.77 4.972 30.875 13.345v-13.72c-9.01-6.726-18.95-9.968-30.25-9.968zm75.218 2.094V198.97h11.437v-50.28h34.75v-10.595h-34.75V96.53h-11.437zm61.78 0V198.97h11.407V96.53H294.97zm181.345 0V198.97h11.406V154h15.405l23.25 44.968h13.25l-24.906-46.53c10.603-3.12 20.968-11.28 20.968-27.595 0-20.626-15.455-28.312-32.313-28.312h-27.062zm110.562 0V198.97h11.406V96.53h-11.405zm54.5 0v10.595h24.75v91.843h11.406v-91.843h25V96.53h-61.155zm102.438 0V198.97h55.437v-10.593h-44.03v-40.22H793v-10.593h-37.78v-30.438h42.343V96.532h-53.75zM487.72 107.126h14.155c11.804 0 22.375 4.706 22.375 17.718 0 13.02-9.06 19.094-22.25 19.094h-14.28v-36.813zM392.5 118.25l17.125 41.03H374.97l17.53-41.03z"
      fill="currentColor"/>
    <path
      d="M0 147.75C0 66.145 65.736 0 149.007 0c36.465 0 69.84 13.207 95.607 35.097v22.747c-23.78-25.23-57.512-40.978-94.92-40.978-72.977 0-130.01 58.39-130.01 130.425 0 72.033 57.06 130.43 130.01 130.43 37.408 0 71.14-15.75 94.92-40.98v23.66c-25.766 21.892-59.143 35.1-95.607 35.1C65.805 295.5 0 229.35 0 147.75zM461.594 229.937c-1.28 0-2.344 1.063-2.344 2.344 0 1.246 1.064 2.313 2.344 2.313 1.245 0 2.312-1.067 2.312-2.312 0-1.28-1.067-2.343-2.312-2.343zm6.75 0c-.16 0-.317 0-.47.03-1.062.224-1.874 1.193-1.874 2.314 0 1.246 1.063 2.313 2.344 2.313 1.245 0 2.312-1.067 2.312-2.312 0-1.28-1.066-2.343-2.312-2.343zm-59.625 5.844c-.838 0-1.622.077-2.376.25-.252.06-.51.143-.75.22-.24.076-.46.155-.688.25-.226.094-.444.2-.656.312-2.124 1.118-3.5 3.102-3.5 5.72 0 1.89.448 3.184 1.406 4.186.137.143.28.275.438.407.313.262.668.524 1.062.75.394.225.838.424 1.313.625.95.4 2.062.775 3.343 1.156.506.15.98.292 1.406.437 2.982 1.016 4.06 1.928 4.06 3.563 0 1.765-.923 2.87-2.81 3.312-.316.074-.664.12-1.032.156-.37.037-.764.063-1.188.063-2.282 0-4.654-1.11-6.28-2.875l-2.595 2.53c1.786 2.09 4.337 3.52 7.313 3.845.425.046.87.063 1.312.063 6.192 0 8.938-2.984 8.938-7.344 0-1.352-.268-2.425-.813-3.313-.11-.177-.246-.337-.375-.5-1.29-1.63-3.577-2.56-6.562-3.468-1.047-.312-1.902-.596-2.594-.875-.347-.14-.637-.3-.906-.438-1.347-.697-1.782-1.41-1.782-2.47 0-.202.024-.4.063-.593.037-.194.076-.384.155-.563.474-1.075 1.686-1.844 3.813-1.844 2.088 0 3.678.56 5.062 1.75.198.17.403.368.594.563l2.562-2.594c-2.145-2.076-4.65-3.28-7.937-3.28zm100.655 0c-4.463 0-7.97 2.564-7.97 6.75 0 4.326 2.443 5.603 7.564 7.126 4.047 1.21 5.468 2.13 5.468 4 0 1.765-.925 2.87-2.813 3.312-.315.074-.662.12-1.03.156-.37.037-.765.063-1.19.063-2.284 0-4.656-1.11-6.28-2.875l-2.594 2.53c1.788 2.09 4.34 3.52 7.314 3.845.425.046.87.063 1.312.063 6.193 0 8.938-2.984 8.938-7.344 0-1.352-.267-2.425-.813-3.313-.108-.177-.245-.337-.374-.5-1.29-1.63-3.58-2.56-6.562-3.468-1.047-.312-1.9-.596-2.594-.875-.346-.14-.637-.3-.906-.438-1.347-.697-1.78-1.41-1.78-2.47 0-.202.022-.4.06-.593.04-.194.078-.384.157-.563.474-1.075 1.685-1.844 3.814-1.844 2.09 0 3.678.56 5.062 1.75.198.17.404.368.594.563l2.563-2.594c-2.146-2.076-4.652-3.28-7.938-3.28zm-240.28.376v14.03c0 6.68 3.107 10.564 9.093 10.564 6.02 0 9.312-3.687 9.312-10.47v-14.124h-3.656v14.187c0 4.43-1.786 6.782-5.594 6.782-3.633 0-5.53-2.464-5.53-7.032v-13.937h-3.626zm25.093 0v24.22h3.53V247.81c0-1.35-.03-4.694-.03-5.594.38.623 1.224 2.07 1.812 2.97l9.656 15.187h3.438v-24.22h-3.53v12.5c0 1.35.06 4.79.06 5.688-.345-.623-1.407-2.403-2.03-3.406l-9.188-14.78h-3.718zm25.468 0v24.22h3.657v-24.22h-3.657zm9.188 0l8.406 24.22h3.844l8.28-24.22H345.5l-4.97 15.406c-.224.71-.525 1.607-.78 2.438-.255.83-.46 1.567-.562 2-.208-.866-.895-2.988-1.344-4.407l-5.063-15.437h-3.936zm25.906 0v24.22h16.125v-3.533h-12.5v-7.656h6.97v-3.53h-6.97v-5.97h11.97v-3.53H354.75zm21.875 0v24.22h3.563v-9.595h5.468l4.813 9.595h4.186l-4.968-9.907c3.288-.83 5.343-3.218 5.343-7.093 0-4.983-3.556-7.22-7.78-7.22h-10.625zm47.03 0v24.22h3.626v-24.22h-3.624zm9.158 0v3.562h7.062v20.657h3.625v-20.657h7.063v-3.562h-17.75zm30.312 0l-8.72 24.22h3.783l2-5.75h9.687l2.03 5.75h3.876l-8.81-24.22h-3.845zm16.5 0v3.562h7.063v20.657h3.625v-20.657h7.062v-3.562h-17.75zm44.5 0v24.22h3.438V247.56c0-1.453-.06-3.558-.094-4.25.274.692.975 2.43 1.56 3.813l5.814 13.625 5.875-13.625c.59-1.384 1.283-3.12 1.56-3.813-.033.692-.06 2.797-.06 4.25v12.813h3.56v-24.22h-3.874l-5.312 12.907c-.294.71-.616 1.483-.906 2.22-.29.734-.546 1.435-.72 1.936-.31-1.003-1.1-2.772-1.687-4.156l-5.405-12.906h-3.75zm28.53 0v24.22h16.126v-3.533h-12.467v-7.656h6.937v-3.53h-6.937v-5.97h11.968v-3.53h-15.624zm21.876 0v24.22h6.626c6.334 0 11.782-3.58 11.782-12.126 0-8.547-5.277-12.094-11.782-12.094h-6.625zm24.25 0v24.22h3.658v-24.22h-3.657zm10.314 0v3.344h9c1.42 0 3.906-.03 4.875-.063-.624.623-1.958 2.19-2.72 3.125l-11.844 14.28v3.533h18.407v-3.344h-9.532c-1.418 0-3.905.028-4.874.063.623-.623 1.957-2.19 2.72-3.125l11.687-14.28v-3.532h-17.72zm24.125 0v24.22h3.624v-24.22h-3.625zm10.686 0v24.22h3.532V247.81c0-1.35-.03-4.694-.032-5.594.383.623 1.226 2.07 1.813 2.97l9.655 15.187h3.438v-24.22h-3.532v12.5c0 1.35.064 4.79.064 5.688-.346-.623-1.41-2.403-2.03-3.406l-9.19-14.78h-3.718zm35.22 0v24.22h9.624c.33 0 .656-.013.97-.033 4.69-.295 7.343-2.8 7.343-7.406 0-3.356-2.19-5.137-4.094-5.656 1.763-.864 3.093-2.386 3.093-4.843 0-4.083-2.748-6.28-6.97-6.28h-9.968zm23.968 0v24.22h16.125v-3.533h-12.5v-7.656h6.968v-3.53h-6.97v-5.97h11.97v-3.53h-15.594zm21.844 0v24.22h3.562v-9.595h5.47l4.81 9.595h4.19l-4.94-9.907c3.29-.83 5.314-3.218 5.314-7.093 0-4.983-3.558-7.22-7.78-7.22h-10.626zm24.625 0v24.22h15.687v-3.564h-12.062v-20.656h-3.625zm21.343 0v24.22h3.625v-24.22h-3.624zm10.688 0v24.22h3.53V247.81c0-1.35-.03-4.694-.03-5.594.38.623 1.194 2.07 1.78 2.97l9.657 15.187H800v-24.22h-3.53v12.5c0 1.35.03 4.79.03 5.688-.346-.623-1.377-2.403-2-3.406l-9.22-14.78h-3.686zm-99.03 3.312h6.5c2.42 0 3.374 1.388 3.374 3.188 0 1.592-.988 3.094-3.375 3.094h-6.5v-6.282zm-302.376.125h7.062c2.457 0 4.094 1.38 4.094 3.907 0 2.63-1.67 3.875-4.094 3.875h-7.062v-7.782zm348.312 0h7.063c2.456 0 4.125 1.38 4.125 3.907 0 2.63-1.702 3.875-4.125 3.875H728.5v-7.782zm-150.312.094h2.968c5.744 0 8.094 3.476 8.094 8.562 0 5.086-2.35 8.593-8.094 8.593h-2.968v-17.156zM465 240.25c.277 1.038 1.226 3.832 1.813 5.562l1.937 5.563h-7.47l1.94-5.532c.622-1.8 1.503-4.555 1.78-5.593zm217.563 8.78h6.562c2.735 0 4.313 1.51 4.313 4 0 2.388-1.19 4.032-4.407 4.032h-6.467v-8.03z"
    fill="currentColor"/>
  </symbol>
</svg>
